<svg width="17" height="17" viewBox="0 0 17 17" fill="none" xmlns="http://www.w3.org/2000/svg">
<path d="M9.91683 1.41602H4.25016C3.87444 1.41602 3.5141 1.56527 3.24843 1.83095C2.98275 2.09662 2.8335 2.45696 2.8335 2.83268V14.166C2.8335 14.5417 2.98275 14.9021 3.24843 15.1678C3.5141 15.4334 3.87444 15.5827 4.25016 15.5827H12.7502C13.1259 15.5827 13.4862 15.4334 13.7519 15.1678C14.0176 14.9021 14.1668 14.5417 14.1668 14.166V5.66602L9.91683 1.41602Z" stroke="#6CAC3D" stroke-width="2" stroke-linecap="round" stroke-linejoin="round"/>
<path d="M9.9165 1.41602V5.66602H14.1665" stroke="#6CAC3D" stroke-width="2" stroke-linecap="round" stroke-linejoin="round"/>
<path d="M11.3332 9.20898H5.6665" stroke="#6CAC3D" stroke-width="2" stroke-linecap="round" stroke-linejoin="round"/>
<path d="M11.3332 12.041H5.6665" stroke="#6CAC3D" stroke-width="2" stroke-linecap="round" stroke-linejoin="round"/>
<path d="M7.08317 6.375H6.37484H5.6665" stroke="#6CAC3D" stroke-width="2" stroke-linecap="round" stroke-linejoin="round"/>
</svg>
