<svg width="128" height="82" viewBox="0 0 128 82" fill="none" xmlns="http://www.w3.org/2000/svg">
<path fill-rule="evenodd" clip-rule="evenodd" d="M110.884 20.7102H127.088L125.496 29.3665H118.916L117.392 37.5379H123.279L121.825 45.7099H115.938L109.636 81.0978H100.012L110.884 20.7102ZM107.421 20.7102H97.5876L91.6311 52.4967C91.2163 54.6441 90.8697 56.028 90.5932 56.6512C90.2465 57.2055 89.8304 57.482 89.2072 57.482C88.6542 57.482 88.3075 57.2055 88.2374 56.7206C88.1686 56.1662 88.3075 54.9887 88.6535 53.0497L94.747 20.7095H84.8437L80.0647 46.2629C79.165 51.1107 78.6106 54.2967 78.4723 55.8196C78.4036 57.3438 78.6106 58.7979 79.2351 60.1825C79.7882 61.5684 80.8962 62.6758 82.4886 63.5074C84.0822 64.4071 85.9518 64.8232 88.2367 64.8232C90.3139 64.8232 92.1147 64.4765 93.7771 63.7151C95.4396 63.0225 96.8242 61.9144 98.0018 60.5284C99.1793 59.1438 100.011 57.7586 100.426 56.4421C100.911 55.1276 101.395 52.842 102.018 49.5171L107.421 20.7102ZM67.1858 48.4811C67.6006 43.5639 68.2237 37.608 69.1248 30.4058C66.5626 38.6466 64.8307 44.6018 63.9303 48.4811H67.1858ZM77.2267 20.7102L74.1796 63.9228H65.1079L66.0777 56.0981H62.6152L60.5373 63.9228H50.7041L64.5542 20.7102H77.2267ZM56.7288 20.7102H48.4185L44.8171 40.1702L42.8781 20.7102H34.6372L26.5347 63.9228H34.845L38.5152 44.2565L39.9693 63.9228H48.6255L56.7288 20.7102ZM30.2056 21.0569L22.0335 40.5856L24.042 63.9228H14.9696L13.3078 48.4811L10.3997 63.9228H0.911133L10.8144 0.904297H20.3016L15.4538 35.3918L21.4792 21.0569H30.2056Z" fill="#00ACEC"/>
</svg>
