<svg width="172" height="41" viewBox="0 0 172 41" fill="none" xmlns="http://www.w3.org/2000/svg">
<path fill-rule="evenodd" clip-rule="evenodd" d="M130.834 14.1595C130.834 11.3302 132.232 10.6041 134.42 11.1254V19.3429H130.834V14.1595ZM120.939 10.3668V39.95C120.939 40.2413 121.025 40.3292 121.31 40.3292H130.834V25.4112H134.42V40.3292H144.315V4.67773H125.268C123.631 4.67773 122.697 5.38859 122.024 6.41857C121.388 7.39128 120.939 8.80819 120.939 10.3668V10.3668ZM57.7382 19.2165V10.8725C59.6777 10.8725 60.3801 10.5562 60.8592 12.4864C61.4897 15.0266 61.5191 20.1168 57.7382 19.2165ZM47.8438 39.95C47.8438 40.2413 47.9298 40.3292 48.2148 40.3292H57.7382V25.4112C59.13 25.4112 61.325 24.5616 61.325 28.1926V40.0764H71.3431V25.6641C71.3431 23.8843 70.4734 22.2712 68.7458 22.1242C69.2214 21.7864 71.0957 21.0349 71.0957 19.0901V10.8725C71.0957 9.26967 70.2335 7.44949 69.4591 6.60353C68.497 5.55266 67.3431 4.67774 65.4064 4.67774H47.8438V39.95V39.95ZM94.1003 40.3292H103.995V25.4112H107.582V40.3292H117.105C117.39 40.3292 117.476 40.2413 117.476 39.95V4.67773H107.582V19.3429H103.995V4.67773H94.1003V40.3292ZM166.083 11.8839C164.864 11.8839 163.485 10.687 163.485 9.60825C163.485 8.4951 163.369 7.97704 164.314 7.04224C165.885 5.48858 168.927 6.50706 168.927 9.10256C168.927 10.6945 167.664 11.8839 166.083 11.8839ZM147.778 32.8702C147.778 35.5925 148.54 38.3098 150.957 39.4814C153.984 40.9481 164.949 41 168.023 39.5317C170.166 38.5081 171.153 36.1561 171.153 32.9966V4.67774H161.259V31.7324C161.259 34.041 160.512 34.5138 159.156 34.5138C158.058 34.5138 157.672 32.9054 157.672 31.7324V4.67774H147.778V32.8702H147.778ZM74.6825 40.3292L91.0083 40.2028V34.1345H84.5769V25.4112H91.0083V19.3429H84.5769V10.7461H91.0083V4.67774H74.6825V40.3292Z" fill="#5A5E5E"/>
<path fill-rule="evenodd" clip-rule="evenodd" d="M166.577 9.22911C166.825 9.7067 167.201 10.1 167.32 10.6198C166.54 10.5534 166.736 9.89399 166.263 9.42463C165.965 9.12962 166.211 9.22911 165.588 9.22911V10.6198H165.093V7.45917C165.993 7.45917 167.443 7.24322 167.443 8.34412C167.443 8.97105 167.153 9.18015 166.577 9.22911ZM163.856 8.84985C163.856 10.5189 164.79 11.6196 166.191 11.5881C169.294 11.5183 169.303 6.57422 166.083 6.57422C164.967 6.57422 163.856 7.67247 163.856 8.84985Z" fill="#5A5E5E"/>
<path fill-rule="evenodd" clip-rule="evenodd" d="M165.588 8.97571H166.206C167.282 8.97571 167.207 7.83789 166.577 7.83789H165.588V8.97571Z" fill="#5A5E5E"/>
<path fill-rule="evenodd" clip-rule="evenodd" d="M9.62695 34.5136C9.74864 34.9795 9.68108 34.7718 9.99017 35.0273L11.6797 36.3345C12.1105 36.6255 12.4284 36.8814 12.8833 37.127C17.7147 39.7353 23.031 40.4968 28.1393 37.8864C29.6121 37.1339 31.9322 35.6062 32.9848 34.2425C33.153 34.0246 33.2714 33.9261 33.4683 33.7254C35.6639 31.487 37.084 27.2309 37.084 23.7676C36.1098 24.4345 34.4533 25.904 33.0524 26.8527L28.6978 29.6076C27.7122 30.2179 26.5258 30.743 25.4547 31.2231C21.4916 32.9993 18.5799 33.6982 14.241 34.2995C12.8015 34.499 11.3628 34.5136 9.62695 34.5136V34.5136Z" fill="#E9128B"/>
<path fill-rule="evenodd" clip-rule="evenodd" d="M0.845703 19.0917C0.845703 22.6715 1.34228 25.5856 3.14411 28.3733C3.53158 28.9727 4.75745 30.6786 5.26641 31.1344C5.87156 31.6764 7.50812 33.1 8.14283 33.2511C7.63125 31.0065 7.52446 26.5661 7.52446 24.0222C7.52446 18.7419 8.56932 14.652 10.0755 10.3211C10.3503 9.53081 10.6737 8.72624 11.0282 8.00793C11.5194 7.0125 11.407 7.02275 12.0951 5.81154C12.4855 5.12445 12.8502 4.3703 13.2137 3.66797C11.5626 4.06117 9.92467 4.94228 8.50548 5.80856C8.11748 6.04541 7.86537 6.24574 7.47348 6.52361L5.57959 8.12759C5.22146 8.4369 5.12743 8.70929 4.77316 9.07321C2.94031 10.956 0.845703 15.3568 0.845703 19.0917V19.0917Z" fill="#A4CC3A"/>
<path fill-rule="evenodd" clip-rule="evenodd" d="M15.5645 1.89637V2.14919C16.3107 2.21266 18.4268 3.25533 19.2228 3.59312C20.3232 4.06007 21.6422 4.77068 22.6973 5.3513C25.7959 7.05645 29.0779 9.45159 31.5502 11.9786C33.6648 14.1402 33.3443 13.7761 35.2584 16.1529C35.6742 16.6693 35.9747 17.1472 36.3616 17.68L38.4454 20.8599C38.6639 20.3944 38.9401 17.6278 38.9401 16.8143C38.9401 12.6925 37.3461 8.00777 34.5814 5.21387C34.2425 4.87131 33.9988 4.60228 33.6552 4.26424L32.5822 3.33833C30.4022 1.65755 26.8793 0 23.9747 0C21.3999 0 19.3257 0.0681265 17.0053 1.21995C16.5207 1.46045 16.0754 1.77467 15.5645 1.89637L15.5645 1.89637Z" fill="#BCBEBE"/>
</svg>
