<svg width="250" height="103" viewBox="0 0 250 103" fill="none" xmlns="http://www.w3.org/2000/svg">
<path d="M179.4 40.0801H178.6C173.79 40.0801 169.04 41.3301 164.01 42.6501L162.52 43.0301L162.58 49.2901V71.6201H167.44V53.2301L167.58 46.0701L168.27 45.5101C170.422 43.8375 173.108 43.0025 175.83 43.1601C181.2 43.1601 184.95 47.6301 184.95 54.0201V71.6201H189.81V53.0001C189.81 42.1301 183.28 40.2401 179.4 40.0801Z" fill="#273D8B"/>
<path d="M218.76 43.4105V40.0805H210.83V31.2305H206V61.0005C206 65.1405 206.71 67.8005 208.27 69.4205C209.097 70.2147 210.079 70.8305 211.154 71.2296C212.229 71.6287 213.375 71.8026 214.52 71.7405C215.962 71.7555 217.401 71.6079 218.81 71.3005V68.3705C218.38 68.3705 217.91 68.3705 217.34 68.3705C210.88 68.3705 210.88 62.0605 210.88 59.9905V43.4105H218.76Z" fill="#273D8B"/>
<path d="M144.37 40.0801C141.352 40.0783 138.353 40.5646 135.49 41.5201V43.5801C137.868 42.7237 140.373 42.2741 142.9 42.2501C143.459 42.2495 144.017 42.2863 144.57 42.3601C151.71 43.0701 152.27 48.3601 152.27 49.9501V52.5001L150.27 52.4401H149.27C147.84 52.4401 146.15 52.5301 144.51 52.7001C135.92 53.5401 131.57 56.6401 131.57 61.9001C131.57 68.3601 136.89 71.6401 147.39 71.6401H157.09V52.2201C157.14 43.9401 153.08 40.0801 144.37 40.0801ZM152.27 70.0801H150.34C148.255 70.1071 146.171 69.9969 144.1 69.7501C142.1 69.4601 136.1 68.5801 136.1 62.3701C136.1 60.0801 137.1 56.0101 144.1 54.6301C146.189 54.2529 148.308 54.0788 150.43 54.1101H152.36L152.27 70.0801Z" fill="#273D8B"/>
<path d="M99.9996 40.0807C98.3441 40.0478 96.6976 40.3329 95.1496 40.9207C91.4496 42.4907 89.6696 45.5607 89.6996 50.3107L89.8396 71.6707H94.9396L94.8196 53.5707C94.8196 49.5207 94.7496 43.3907 102.4 43.3407C103.09 43.3407 103.84 43.3407 104.66 43.4607V40.6207C103.131 40.2692 101.568 40.0881 99.9996 40.0807V40.0807Z" fill="#273D8B"/>
<path d="M31.6602 56.2806C31.6602 65.8606 37.9202 71.8106 47.9902 71.8106C50.1349 71.795 52.27 71.5231 54.3502 71.0006V68.3206C52.8241 68.6379 51.2688 68.7921 49.7102 68.7806C42.2002 68.7806 37.0002 63.4906 37.0002 55.9306C36.9379 54.2096 37.2199 52.4934 37.8294 50.8827C38.439 49.272 39.364 47.7992 40.5502 46.5506C41.7618 45.3761 43.1968 44.4567 44.7702 43.8469C46.3437 43.2371 48.0235 42.9494 49.7102 43.0006C51.2712 42.9824 52.8288 43.1502 54.3502 43.5006V40.6406C52.7399 40.3179 51.1024 40.1505 49.4602 40.1406C38.8102 40.1406 31.6602 46.6306 31.6602 56.2806Z" fill="#273D8B"/>
<path d="M119.49 54.4306C115.38 53.0006 112 51.5906 112 47.8706C112 44.5206 114.71 42.3606 118.92 42.3606C120.784 42.388 122.627 42.7539 124.36 43.4406V41.3806C122.348 40.5051 120.174 40.0622 117.98 40.0806C111.39 40.0806 107.3 43.4406 107.3 48.9006C107.18 53.1906 111.8 55.6206 115.7 56.9006C120.21 58.4206 122.82 60.0206 122.82 63.7306C122.82 67.2806 119.97 69.4106 115.21 69.4106C112.616 69.3117 110.054 68.8021 107.62 67.9006V70.6006C110.06 71.3763 112.6 71.7874 115.16 71.8206C122.96 71.8206 127.62 68.5206 127.62 63.0106C127.54 59.0006 125.11 56.3806 119.49 54.4306Z" fill="#273D8B"/>
<path d="M72.43 40.0801H71.53C61.55 40.5301 57 48.8901 57 56.4701C57 65.4701 62.3 71.0901 71.43 71.7601H73.34C76.2996 71.77 79.2479 71.3935 82.11 70.6401V68.2801C79.6346 68.8497 77.0999 69.1216 74.56 69.0901C73.3826 69.083 72.2081 68.9726 71.05 68.7601C65.36 67.6001 61.89 63.7101 61.75 58.3501V56.3501H85.65C85.65 55.8901 85.65 55.3501 85.65 54.7301C85.67 51.3101 84.72 40.0801 72.43 40.0801ZM81.18 52.3901V54.2801H61.54L61.78 52.1401C62.26 47.6601 65.06 42.3401 71.27 42.1401H71.87C73.0713 42.0941 74.2693 42.2959 75.3892 42.7328C76.5092 43.1698 77.5273 43.8326 78.38 44.6801C80.26 46.8004 81.2613 49.5575 81.18 52.3901V52.3901Z" fill="#273D8B"/>
<path d="M200.56 40.0801H195.4V71.6201H200.56V40.0801Z" fill="#273D8B"/>
<path d="M198 31.2292C197.662 31.2096 197.322 31.2608 197.004 31.3797C196.686 31.4986 196.397 31.6824 196.154 31.9196C195.911 32.1568 195.721 32.442 195.594 32.757C195.468 33.0721 195.409 33.41 195.42 33.7492C195.461 34.4096 195.753 35.0295 196.235 35.4827C196.717 35.9358 197.354 36.1881 198.015 36.1881C198.677 36.1881 199.314 35.9358 199.796 35.4827C200.278 35.0295 200.569 34.4096 200.61 33.7492C200.619 33.4082 200.557 33.0689 200.428 32.7531C200.299 32.4373 200.105 32.1519 199.86 31.9149C199.614 31.6779 199.322 31.4945 199.002 31.3765C198.682 31.2585 198.341 31.2083 198 31.2292V31.2292Z" fill="#273D8B"/>
</svg>
