<svg width="141" height="58" viewBox="0 0 141 58" fill="none" xmlns="http://www.w3.org/2000/svg">
<path fill-rule="evenodd" clip-rule="evenodd" d="M128.98 5.46404V9.60766H138.008V14.4695H128.98V19.7723H141V24.6417H122.753V0.593883H139.775V5.46328H128.98V5.46404ZM115.712 0.593883V24.6417H109.479V14.4695H97.562V24.6417H91.3285V0.593883H97.562V9.60691H109.479V0.593883H115.712ZM71.7688 0C80.3047 0 87.2716 5.66903 87.2716 12.6215C87.2716 19.5741 80.3047 25.2431 71.7688 25.2431C63.2313 25.2431 56.2645 19.5741 56.2645 12.6215C56.2645 5.66903 63.2321 0 71.7688 0ZM71.7688 4.57622C76.3435 4.57622 80.0839 8.19229 80.0839 12.6215C80.0839 17.0516 76.3435 20.6601 71.7688 20.6601C67.1918 20.6601 63.4589 17.0516 63.4589 12.6215C63.4597 8.19229 67.1926 4.57622 71.7688 4.57622ZM31.7623 0.593883H43.6279C50.7198 0.593883 53.1104 4.46619 53.1104 8.07471C53.118 11.6832 51.475 13.9563 48.1747 15.1885L56.7551 24.6417H48.1611C44.9415 20.6081 41.7219 16.567 38.503 12.5334H42.4039C43.345 12.5326 44.2473 12.1584 44.9128 11.4931C45.5783 10.8277 45.9527 9.92545 45.9537 8.98438C45.9517 8.04354 45.5771 7.14181 44.9118 6.47654C44.2465 5.81126 43.3448 5.43663 42.4039 5.43464H37.989V24.6417H31.763V0.593883H31.7623ZM15.5035 0C19.3826 0 22.9324 1.16591 25.6538 3.08775V7.3414C22.0453 5.41203 18.6651 4.48804 15.5035 4.57622C10.9273 4.57622 7.19444 8.19229 7.19444 12.6215C7.19444 17.0516 10.9273 20.6601 15.5035 20.6601C17.0071 20.6601 18.4225 20.2712 19.6396 19.5967V12.813H26.0714V21.8411C23.2994 23.9536 19.5808 25.2438 15.5035 25.2438C6.96684 25.2438 6.11349e-08 19.5748 6.11349e-08 12.6223C-0.000753599 5.66903 6.96684 0 15.5035 0Z" fill="#2761AB"/>
<path fill-rule="evenodd" clip-rule="evenodd" d="M55.3853 32.9816C60.3135 34.7919 65.418 36.6632 71.4458 36.6632C77.4675 36.6632 82.5713 34.7927 87.4995 32.9816C99.9816 28.3971 103.929 28.4197 116.483 32.8196C121.419 34.5432 126.523 36.3331 132.566 36.3331C134.349 36.3331 136.05 36.1711 137.678 35.893C136.969 36.8856 136.205 37.8379 135.389 38.7456C134.45 38.8274 133.509 38.8687 132.566 38.8692C126.12 38.8692 120.796 37.0069 115.655 35.2027C111.145 33.626 106.782 32.1013 102.013 32.0426H102.006H101.955H101.962C97.2255 32.1089 92.8686 33.6999 88.373 35.3572C83.233 37.2413 77.9084 39.2008 71.4465 39.2008C64.9786 39.2008 59.654 37.2413 54.5209 35.3572C50.0177 33.6999 45.6616 32.1081 40.9241 32.0426H40.9316H40.8728C36.1059 32.1013 31.7422 33.6267 27.2323 35.2027C22.0984 37.0077 16.7745 38.8692 10.3202 38.8692C9.29425 38.869 8.26889 38.8204 7.24752 38.7237C6.42497 37.8108 5.65595 36.8511 4.94434 35.8493C6.71837 36.17 8.51741 36.3321 10.3202 36.3339C16.3638 36.3339 21.4751 34.5439 26.4033 32.8203C38.957 28.4197 42.9032 28.3979 55.3853 32.9816ZM55.3853 42.2509C60.3135 44.0627 65.418 45.94 71.4458 45.94C77.4675 45.94 82.5713 44.0634 87.4995 42.2509C99.9816 37.6671 103.929 37.6965 116.483 42.0979C120.098 43.358 123.809 44.6566 127.916 45.2655C126.911 45.9639 125.887 46.6339 124.844 47.2748C121.603 46.5641 118.596 45.5067 115.655 44.481C111.145 42.8968 106.782 41.3706 102.013 41.3194H102.006H101.955H101.962C97.2255 41.3781 92.8686 42.9767 88.373 44.6272C83.233 46.5204 77.9084 48.4708 71.4465 48.4708C64.9786 48.4708 59.654 46.5204 54.5209 44.6272C50.0177 42.9774 45.6616 41.3781 40.9241 41.3194H40.9316H40.8728C36.1059 41.3706 31.7422 42.8975 27.2323 44.481C24.2403 45.5293 21.1819 46.6003 17.8741 47.3117C16.8224 46.668 15.7902 45.9929 14.7788 45.2874C18.9586 44.7003 22.7285 43.3799 26.4033 42.0979C38.957 37.6965 42.9032 37.6671 55.3853 42.2509ZM55.3853 51.5292C60.3135 53.3395 65.418 55.2108 71.4458 55.2108C77.4675 55.2108 82.5713 53.3402 87.4995 51.5292C99.9816 46.9454 103.929 46.9673 116.483 51.3672C116.593 51.4041 116.696 51.441 116.806 51.4772C115.658 51.992 114.5 52.4807 113.33 52.9431C109.627 51.689 105.96 50.6338 102.013 50.5894H102.006H101.955H101.962C97.2255 50.6557 92.8686 52.2542 88.373 53.904C83.233 55.7881 77.9084 57.7476 71.4465 57.7476C64.9786 57.7476 59.654 55.7881 54.5209 53.904C50.0177 52.2542 45.6616 50.6549 40.9241 50.5894H40.9316H40.8728C36.8837 50.6338 33.1795 51.7108 29.4398 52.9875C28.267 52.5264 27.1053 52.0376 25.9556 51.5217L26.4033 51.3672C38.957 46.9673 42.9032 46.9447 55.3853 51.5292Z" fill="#82C4CE"/>
</svg>
