<svg width="136" height="38" viewBox="0 0 136 38" fill="none" xmlns="http://www.w3.org/2000/svg">
<path fill-rule="evenodd" clip-rule="evenodd" d="M10.0083 13.1584C12.822 10.6461 14.7314 10.3439 18.7007 10.3439V19.0872C17.9976 19.0371 17.2939 18.9862 16.5908 18.9862C10.5109 18.9862 10.4106 22.9555 10.3598 24.6638V36.9238H0.0585938V10.7463H10.0075V13.1584H10.0083ZM20.494 18.7357C20.8956 16.5248 21.4483 13.7612 25.167 11.8016C28.0817 10.2945 31.7997 10.0432 34.5131 10.0432C46.8742 10.0432 46.8742 16.4246 46.8742 19.5397V33.7085C46.8742 35.4175 47.0252 35.87 47.7784 36.9246H37.5782V34.9149C36.2715 35.8191 33.8602 37.5274 28.9859 37.5274C22.4535 37.5274 19.5897 33.5581 19.5897 29.1364C19.5897 27.5784 19.9412 25.4184 21.8006 23.5591C24.1618 21.147 26.9755 20.7454 31.5484 20.1425C34.4122 19.7401 35.5176 19.4896 37.0756 19.0371C37.0254 17.2787 36.5228 16.0723 33.558 16.0723C31.1968 16.0723 30.5431 16.6759 30.1916 18.4844L20.494 18.7357ZM33.9597 25.8208C33.1056 26.0212 32.2013 26.2232 31.2971 26.5239C29.2866 27.3279 29.1864 28.5343 29.1864 28.8357C29.1864 29.5395 29.79 30.8461 31.7488 30.8461C33.2065 30.8461 35.6179 29.8917 36.5228 27.8813C37.0247 26.7766 37.0247 25.7206 37.0247 24.8163C36.0202 25.1671 35.015 25.5194 33.9597 25.8208ZM54.2505 27.4281C55.2049 28.3817 56.16 29.2366 58.1697 30.0907C60.029 30.8447 61.4352 30.9449 62.29 30.9449C63.5458 30.9449 65.0035 30.4931 65.0035 29.3376C65.0035 28.0309 63.4456 27.7796 62.3903 27.6286C61.486 27.4775 59.3252 27.126 56.964 26.4222C54.5519 25.7191 49.7787 24.3123 49.7787 18.7851C49.7787 16.4732 50.834 14.3633 52.3912 12.8555C55.4562 9.94155 59.878 9.84059 61.5862 9.84059C63.5458 9.84059 65.5054 10.0919 67.465 10.5444C71.0319 11.3985 72.5397 12.504 73.9966 13.6094L68.4193 18.6841C66.6609 17.5787 64.5002 16.2219 61.7366 16.2219C61.3349 16.2219 59.5257 16.2219 59.5257 17.5787C59.5257 18.533 60.2295 18.6841 63.6962 19.539C68.3184 20.5936 69.4245 20.8449 70.6803 21.4978C73.2936 22.9054 74.7505 25.3167 74.7505 28.2815C74.7505 33.4071 70.4806 37.9283 62.3903 37.9283C54.9536 37.9283 50.6829 34.5118 48.472 32.7033L54.2505 27.4281ZM103.719 29.9404C103.066 31.3473 102.514 32.4527 101.207 33.7586C99.75 35.2664 96.3821 37.929 90.3538 37.929C81.7616 37.929 76.4857 32.1012 76.4857 23.7094C76.4857 19.3886 78.0436 15.8711 80.2037 13.6602C83.8207 9.89216 88.9956 9.69097 90.9566 9.69097C92.7157 9.69097 97.6895 9.74109 101.659 13.7612C102.664 14.7664 103.116 15.4695 103.719 16.474L95.8309 20.9458C95.1772 18.6347 93.9214 16.9766 91.4585 16.9766C88.294 16.9766 86.7361 20.091 86.7361 24.0108C86.7361 26.0714 87.1377 29.9898 91.2072 29.9898C94.3717 29.9898 95.3777 26.9756 95.8302 25.6181L103.719 29.9404ZM105.868 1.40018H116.169V13.5099C117.123 12.3536 119.134 9.7912 124.51 9.7912C127.475 9.7912 130.137 10.7957 131.745 12.4037C133.907 14.6647 134.006 17.5787 134.107 19.8912V36.9238H123.806V22.052C123.757 20.8957 123.705 18.3333 120.088 18.3333C116.269 18.3333 116.22 21.0461 116.22 22.2524V36.9238H105.868V1.40018ZM131.448 1.42778H132.885C133.739 1.42778 134.162 1.78876 134.162 2.51143C134.162 3.23338 133.703 3.53335 133.22 3.61251L134.302 5.30408H133.659L132.594 3.62196H132.012V5.30408H131.448V1.42778ZM132.013 3.10991H132.682C133.22 3.10991 133.599 3.03074 133.599 2.51071C133.599 2.1047 133.237 1.93765 132.735 1.93765H132.013V3.10991H132.013ZM132.647 0.0703164C133.08 0.0696469 133.508 0.15442 133.908 0.319785C134.309 0.48515 134.672 0.727852 134.978 1.03398C135.284 1.3401 135.527 1.70364 135.692 2.10374C135.858 2.50384 135.943 2.93264 135.942 3.36557C135.943 3.79849 135.858 4.2273 135.692 4.6274C135.527 5.0275 135.284 5.39103 134.978 5.69716C134.672 6.00328 134.309 6.24598 133.908 6.41135C133.508 6.57671 133.08 6.66149 132.647 6.66082C132.214 6.66149 131.785 6.57671 131.385 6.41135C130.985 6.24598 130.621 6.00328 130.315 5.69716C130.009 5.39103 129.766 5.0275 129.601 4.6274C129.436 4.2273 129.351 3.79849 129.351 3.36557C129.351 2.93264 129.436 2.50384 129.601 2.10374C129.766 1.70364 130.009 1.3401 130.315 1.03398C130.621 0.727852 130.985 0.48515 131.385 0.319785C131.785 0.15442 132.214 0.0696469 132.647 0.0703164ZM132.647 6.15023C134.135 6.15023 135.378 4.88137 135.378 3.36629C135.378 1.85122 134.135 0.582358 132.647 0.582358C131.157 0.582358 129.914 1.85122 129.914 3.36629C129.914 4.88137 131.157 6.15023 132.647 6.15023Z" fill="#CC2229"/>
</svg>
