<svg width="155" height="68" viewBox="0 0 155 68" fill="none" xmlns="http://www.w3.org/2000/svg">
<path d="M85.7514 67.1392C82.7963 67.036 79.1559 66.6849 74.5706 66.061C70.5338 65.5118 67.7486 65.0563 53.8123 62.6662C44.4237 61.0561 39.4836 60.4201 35.2479 60.2761L33.6024 60.2202L30.9444 60.3192C22.2033 60.6445 14.2029 61.7292 3.44789 64.0472L0.633565 64.6537L0.515025 64.6072L0.396484 64.5607L0.418126 58.2363L0.439773 51.912L1.95867 51.5025C9.61845 49.4371 16.115 48.3271 23.603 47.8042L24.9953 47.707L32.0413 47.6644L39.0874 47.6217L40.8594 47.721C47.0517 48.068 51.8727 48.7529 63.3898 50.922C74.2746 52.9721 78.634 53.6242 84.5278 54.0839L86.4264 54.2319L90.4768 54.234L94.5272 54.2362L96.3837 54.1288C99.0697 53.9735 102.291 53.7143 105.666 53.3819L108.619 53.0911L108.7 53.1714L108.781 53.2517L108.616 53.4102C108.497 53.524 91.662 64.6535 88.1563 66.9358C87.9939 67.0416 87.785 67.1445 87.6922 67.1646C87.5994 67.1846 86.726 67.1732 85.7514 67.1392V67.1392ZM110.94 62.9509V62.8133L115.081 55.8821L119.223 48.951L119.406 48.9008L119.589 48.8505L136.818 48.8493L154.048 48.8482L154.18 48.9838L154.313 49.1194V56.0004V62.8814L154.212 62.985L154.11 63.0885H132.525H110.94V62.9509V62.9509ZM60.0988 41.7608C59.5419 41.7211 58.548 41.6087 57.8902 41.511L56.6942 41.3334L55.6962 41.0831C55.1474 40.9455 54.3375 40.7107 53.8966 40.5614L53.095 40.29L51.7449 39.6111L50.3947 38.9322L49.5067 38.2469L48.6186 37.5616L47.8612 36.7507L47.1038 35.9397L46.5871 35.1659L46.0704 34.3921L45.6927 33.6153C45.0201 32.2322 44.5905 30.8445 44.3166 29.1706L44.1824 28.3507L44.1341 26.8835L44.0858 25.4163L44.1845 24.3807C44.2389 23.811 44.3599 22.9566 44.4535 22.4819L44.6236 21.6189L44.9496 20.6173L45.2756 19.6157L45.6545 18.844C45.863 18.4195 46.2719 17.7051 46.5632 17.2564L47.0929 16.4406L48.1109 15.4018L49.129 14.363L49.8884 13.8401C50.9148 13.1334 51.8893 12.6093 53.0607 12.1341L54.039 11.7372L55.339 11.4L56.6391 11.0627L57.947 10.8608L59.255 10.6589L62.5037 10.6585L65.7525 10.6582L66.6385 10.7723C69.4881 11.1394 71.6122 11.7397 73.5704 12.7313L74.4688 13.1863L75.1737 13.668C76.4749 14.5571 77.4855 15.5583 78.4081 16.8722L78.8929 17.5626L79.3532 18.5004L79.8136 19.4382L80.0991 20.3128L80.3847 21.1874L80.5967 22.2662L80.8088 23.345L80.9074 24.5533L81.0059 25.7616L80.9515 27.0095L80.8971 28.2575L80.7664 29.1672C80.5041 30.9923 80.0368 32.5205 79.2809 34.0257L78.8476 34.8884L78.3411 35.5896C78.0626 35.9753 77.5464 36.5957 77.1941 36.9684L76.5536 37.646L75.7941 38.2263C74.547 39.1794 73.7136 39.6472 72.1483 40.2732L71.1846 40.6586L69.9031 40.991L68.6215 41.3235L67.3558 41.5045L66.09 41.6855L64.8243 41.7702L63.5585 41.8548L62.335 41.8439C61.662 41.8379 60.6558 41.8005 60.0988 41.7608V41.7608ZM63.8961 35.9871L64.6555 35.9007L65.2462 35.7211L65.8369 35.5415L66.3406 35.2688L66.8444 34.9962L67.2751 34.549L67.7058 34.1019L67.9656 33.5997C68.1084 33.3235 68.305 32.8313 68.4023 32.506L68.5792 31.9146L68.7085 30.9094L68.8377 29.9042L68.8883 27.2719L68.9389 24.6396L68.8418 22.9667L68.7447 21.2939L68.5769 20.507L68.409 19.7202L68.1163 19.0894L67.8235 18.4587L67.3365 17.9614L66.8495 17.4641L66.301 17.1902L65.7525 16.9163L65.0774 16.736L64.4024 16.5557L63.0944 16.511L61.7865 16.4663L60.9664 16.6042L60.1464 16.7421L59.5763 16.9615L59.0062 17.181L58.6019 17.4464L58.1976 17.7117L57.8525 18.1118L57.5074 18.5119L57.2728 18.9866C56.957 19.6256 56.7262 20.4236 56.5863 21.36L56.4703 22.1367V26.1068V30.0768L56.5792 30.8535C56.6391 31.2808 56.7648 31.9211 56.8587 32.2764L57.0293 32.9226L57.2836 33.4676L57.5379 34.0127L58.0185 34.515L58.499 35.0172L59.088 35.3175L59.6769 35.6178L60.2254 35.7661C61.2849 36.0525 62.6173 36.1327 63.8961 35.9871ZM100.898 41.7568L100.097 41.6795L99.0546 41.4642L98.0127 41.2489L97.0716 40.9397L96.1305 40.6305L95.1794 40.1703C93.9991 39.5992 93.3896 39.2275 92.4159 38.4853L91.6548 37.9051L90.7705 36.9672L89.8861 36.0293L89.3694 35.2539L88.8526 34.4784L88.4328 33.6153C87.7141 32.1377 87.2889 30.7768 87.017 29.0843L86.8854 28.2644L86.8344 26.9267L86.7835 25.5889L86.8841 24.5101L86.9847 23.4313L87.1531 22.5682L87.3216 21.7052L87.6474 20.7041L87.9732 19.703L88.4129 18.8054L88.8526 17.9078L89.3694 17.1328L89.8861 16.3578L90.73 15.4597L91.5738 14.5617L92.2489 14.0249C93.1807 13.2839 93.8499 12.8676 95.0781 12.2648L96.1305 11.7483L97.0587 11.437L97.987 11.1258L98.9995 10.9165L100.012 10.7073L101.025 10.6058L102.037 10.5044L104.105 10.5574L106.172 10.6104L107.522 10.744C110.642 11.0528 113.149 11.5919 115.202 12.3957L116.003 12.7091V12.8767V13.0443L114.897 15.6918C114.289 17.1479 113.758 18.3751 113.718 18.4189L113.645 18.4985L112.482 18.1005C110.639 17.4695 109.402 17.1942 107.525 16.9975L106.514 16.8916L105.542 16.9425L104.569 16.9934L103.867 17.1702L103.165 17.347L102.559 17.6359L101.953 17.9249L101.489 18.2811L101.025 18.6372L100.575 19.1787L100.126 19.7202L99.7139 20.5832L99.3017 21.4463L99.1317 22.0936C99.0382 22.4496 98.8967 23.1098 98.8172 23.5608L98.6726 24.3807V26.1931V28.0055L98.8123 28.8264C98.889 29.2779 99.0494 29.9917 99.1687 30.4127L99.3856 31.178L99.6793 31.7925L99.973 32.407L100.391 32.9773L100.81 33.5475L101.194 33.8696C101.406 34.0468 101.796 34.3254 102.061 34.4887L102.543 34.7857L103.303 35.0346L104.063 35.2834L104.723 35.3771L105.383 35.4709L106.031 35.4694C107.921 35.465 110.39 35.0037 112.493 34.2619L113.494 33.909L113.616 33.9348L113.738 33.9605L114.871 36.6651C115.494 38.1526 116.003 39.4235 116.003 39.4893V39.6091L115.765 39.7354C114.928 40.1777 112.306 40.9211 110.434 41.2466C107.56 41.7463 103.207 41.9792 100.899 41.7568L100.898 41.7568ZM136.635 41.8045C136.356 41.7863 135.521 41.71 134.78 41.6349L133.431 41.4985L132.248 41.2865C130.715 41.0117 129.536 40.7153 128.281 40.2887L127.268 39.9448L126.224 39.4347L125.179 38.9245L124.489 38.4545L123.798 37.9845L123.195 37.4138L122.593 36.8431L122.196 36.308L121.8 35.7729L121.425 34.9694L121.05 34.1659L120.881 33.3296L120.711 32.4933L120.757 31.3282L120.803 30.1631L120.933 29.6232C121.005 29.3263 121.181 28.7745 121.323 28.397L121.582 27.7106L122.01 27.0381L122.439 26.3657L123.081 25.7114L123.724 25.0572L124.357 24.6225C125.979 23.5096 127.937 22.7393 130.551 22.1853L131.74 21.9333L133.133 21.7572C133.898 21.6602 135.038 21.5392 135.664 21.4882L136.803 21.3955L139.537 21.3425L142.271 21.2896L142.219 20.2028L142.168 19.116L142.043 18.453L141.919 17.7899L141.703 17.3226L141.487 16.8554L141.186 16.5388L140.885 16.2223L140.486 16.0154C140.267 15.9016 139.871 15.7443 139.607 15.6659L139.127 15.5232L138.092 15.4568L137.056 15.3904L135.158 15.4577L133.259 15.5249L132.294 15.6647L131.33 15.8044L130.363 16.0593L129.397 16.3141L128.248 16.7956C127.616 17.0604 126.94 17.3402 126.745 17.4174L126.391 17.5577L126.331 17.4963C126.298 17.4626 125.901 16.3977 125.45 15.13L124.628 12.825L124.668 12.719L124.707 12.613L125.23 12.399C127.369 11.523 130.891 10.8704 134.892 10.6085L136.44 10.5072L139.153 10.5549L141.866 10.6027L142.916 10.7392C143.493 10.8142 144.442 10.9761 145.025 11.0988L146.085 11.3219L147.073 11.6532L148.06 11.9845L148.845 12.3728L149.63 12.7611L150.302 13.2199L150.975 13.6788L151.625 14.3341L152.274 14.9894L152.754 15.7419L153.233 16.4944L153.531 17.2442L153.828 17.9941L154.043 18.9866L154.259 19.9791L154.291 29.4459L154.323 38.9128L154.165 39.0739L154.008 39.2351L152.536 39.6788C149.135 40.704 146.28 41.2919 142.968 41.6486L141.782 41.7763L139.461 41.8069C138.185 41.8237 136.913 41.8226 136.635 41.8045ZM140.794 35.8947L142.032 35.8007L142.182 35.7187L142.332 35.6366L142.31 30.958L142.288 26.2794L140.643 26.3012L138.997 26.323L137.835 26.4557L136.672 26.5883L135.862 26.7983L135.053 27.0084L134.36 27.3514L133.667 27.6945L133.246 28.0819L132.824 28.4693L132.564 28.971L132.303 29.4727L132.203 30.0336L132.104 30.5946L132.158 31.1988C132.228 31.9814 132.409 32.6305 132.731 33.2512L132.99 33.7502L133.509 34.2468L134.028 34.7434L134.667 35.0663L135.306 35.3892L136.117 35.5997L136.928 35.8101L137.668 35.8878C138.731 35.9995 139.395 36.001 140.794 35.8947ZM0.499378 41.064L0.397581 40.9599V20.6933V0.426706L0.590601 0.351647L0.783626 0.276588L13.7755 0.252552L26.7674 0.228516L27.8931 0.372848C30.0453 0.648801 31.8144 1.1226 33.2853 1.81696L33.9807 2.14526L34.6987 2.62393L35.4167 3.1026L36.1265 3.79956L36.8363 4.49651L37.264 5.12928L37.6917 5.76206L38.0339 6.48399L38.3761 7.20593L38.58 7.89637C38.6921 8.27612 38.8509 8.93635 38.9329 9.36356L39.082 10.1403V11.6938V13.2473L38.9323 14.0132C38.85 14.4344 38.6856 15.0946 38.567 15.4804L38.3513 16.1817L38.0204 16.8621C37.8384 17.2364 37.4978 17.8261 37.2637 18.1726L36.8379 18.8025L36.1062 19.5228L35.3745 20.243L34.5768 20.7878C33.6888 21.3944 32.69 21.926 31.6363 22.3529L30.9358 22.6367L30.9726 22.7349C30.9929 22.7888 33.2162 26.8873 35.9133 31.8424L40.8172 40.8519V41.0099V41.168L33.6657 41.1459L26.5142 41.1239L24.5734 37.1953C21.9484 31.8817 18.5842 25.4218 18.3719 25.2871L18.3034 25.2437L15.7426 25.2869L13.1817 25.33L13.1395 33.2269L13.0973 41.1239L6.84923 41.146L0.601175 41.1681L0.499378 41.064ZM15.1225 18.8981C18.112 18.6759 20.2226 18.2179 21.8917 17.4292L22.5869 17.1007L23.2248 16.6496L23.8627 16.1986L24.4712 15.5358L25.0797 14.873L25.4725 14.1033L25.8653 13.3336L26.0843 12.6171L26.3033 11.9007L26.302 11.452L26.3008 11.0034L26.1733 10.4504L26.0459 9.89746L25.7738 9.37402L25.5016 8.85057L25.0638 8.40225L24.626 7.95393L24.0934 7.65013L23.5608 7.34633L22.9175 7.13225L22.2742 6.91816L21.3986 6.76135L20.523 6.60454L16.8523 6.60317L13.1817 6.6018L13.1598 12.6863C13.1478 16.0328 13.1561 18.8194 13.1783 18.8787L13.2186 18.9866L13.5798 18.9862C13.7785 18.9861 14.4727 18.9464 15.1225 18.8981V18.8981Z" fill="#ACC9E1"/>
<path d="M85.4143 67.055C81.2016 66.8813 75.4809 66.2046 67.9469 64.9887C66.7403 64.794 62.1456 64.0169 57.7366 63.262C44.6305 61.0178 40.8341 60.4854 36.1766 60.2384L34.3624 60.1421L31.4291 60.2345C22.3065 60.5216 13.5997 61.7156 2.17009 64.247C1.40431 64.4166 0.711312 64.5555 0.630093 64.5555L0.482422 64.5556V58.3015V52.0474L0.643087 51.9595C0.862155 51.8396 5.44291 50.6737 7.57063 50.1963C12.9491 48.9896 17.6839 48.2959 22.9706 47.9401L24.9114 47.8095L28.9196 47.7291L32.9278 47.6487L37.2314 47.7275L41.5349 47.8064L43.1382 47.9395C49.0431 48.4299 52.8599 49.0189 65.4998 51.3903C76.1023 53.3794 81.2192 54.0539 87.5869 54.3019L90.2658 54.4062L93.4937 54.3013C97.7736 54.1623 101.433 53.9002 106.908 53.3403L108.535 53.1738L108.607 53.2465L108.679 53.3192L108.228 53.6154C107.979 53.7784 103.371 56.8178 97.9874 60.3698C92.6038 63.9218 88.085 66.8992 87.9458 66.9861L87.6927 67.1441L87.3129 67.1308C87.1041 67.1235 86.2497 67.0894 85.4143 67.055V67.055ZM111.025 62.9078C111.025 62.8038 118.85 49.667 119.182 49.2149L119.387 48.9344H136.713H154.04L154.135 49.0517L154.23 49.1691L154.208 56.064L154.187 62.959L132.606 62.9807L111.025 63.0025V62.9078ZM60.6056 41.7146C60.4199 41.6995 59.7934 41.6452 59.2133 41.594L58.1585 41.5009L57.0193 41.2879C53.0586 40.5475 50.004 38.9948 47.8051 36.6041L47.179 35.9234L46.6672 35.1577C45.7555 33.7938 45.0633 32.1996 44.667 30.5514L44.4491 29.6452L44.3211 28.6267L44.193 27.6082V26.2715V24.9347L44.2821 24.0967L44.3711 23.2586L44.5842 22.2762L44.7972 21.2937L45.0917 20.4285L45.3862 19.5632L45.7522 18.8177C45.9536 18.4076 46.3462 17.7244 46.6246 17.2995L47.1309 16.5268L47.781 15.8124C48.5338 14.9852 49.3553 14.2795 50.3108 13.6392L50.9859 13.1868L51.929 12.718L52.8721 12.2493L54.0208 11.8627L55.1695 11.476L56.4108 11.221L57.6522 10.9659L58.9179 10.8294L60.1837 10.6929L62.5464 10.6926L64.9091 10.6922L65.9217 10.7859C67.316 10.9149 68.8388 11.1803 70.1409 11.5212L71.2379 11.8083L72.1305 12.1616C73.267 12.6115 74.2506 13.1252 75.2074 13.7688L75.9634 14.2774L76.9814 15.3158L77.9995 16.3542L78.5029 17.1309C78.7797 17.5581 79.1686 18.248 79.3669 18.664L79.7276 19.4204L80.0556 20.4419L80.3836 21.4635L80.5565 22.4042C81.009 24.8651 81.009 27.5208 80.5565 29.9818L80.3836 30.9225L80.0565 31.9411L79.7295 32.9596L79.2542 33.9101L78.7788 34.8605L78.1628 35.7051L77.5468 36.5496L76.9045 37.1734C75.7914 38.2543 74.6347 39.0531 73.1601 39.7589L72.3349 40.154L71.2379 40.5235L70.1409 40.893L69.1283 41.1108C67.83 41.3902 66.4894 41.5737 64.9513 41.6827L63.7278 41.7694L62.3354 41.7557C61.5697 41.7482 60.7912 41.7297 60.6056 41.7146ZM63.77 36.0723L64.5716 35.9864L65.2015 35.8101L65.8314 35.6337L66.3396 35.3581L66.8478 35.0824L67.3279 34.5924L67.8081 34.1024L68.107 33.4669L68.4058 32.8315L68.5721 32.1014C68.6636 31.6998 68.7845 30.9829 68.8408 30.5082L68.9431 29.6452L68.9461 26.1067L68.9492 22.5682L68.8468 21.7051C68.7905 21.2304 68.6848 20.5896 68.612 20.2811L68.4794 19.7201L68.1535 19.0208L67.8276 18.3215L67.3196 17.8405L66.8116 17.3595L66.2823 17.096L65.753 16.8326L65.2562 16.7029C64.983 16.6316 64.4324 16.5285 64.0326 16.4738L63.3059 16.3744L62.1667 16.425L61.0275 16.4756L60.3186 16.6541L59.6097 16.8325L59.0743 17.0938L58.5388 17.3552L58.0433 17.8245L57.5477 18.2937L57.2362 18.9L56.9247 19.5063L56.7239 20.3158L56.5231 21.1254L56.4241 22.3806L56.325 23.6358L56.3693 26.9426L56.4136 30.2493L56.5068 30.9097C56.5581 31.273 56.6743 31.867 56.765 32.2298L56.93 32.8896L57.1898 33.4462L57.4495 34.0029L57.9193 34.5219L58.389 35.0408L59.0754 35.3848L59.7618 35.7288L60.2726 35.8594C61.3475 36.1341 62.5249 36.2058 63.77 36.0723ZM100.772 41.6762C100.354 41.6296 99.557 41.4975 99 41.3827L97.9874 41.174L97.0592 40.8627L96.131 40.5514L95.0762 40.0341L94.0214 39.5168L93.051 38.8576L92.0806 38.1984L91.0192 37.1151L89.9577 36.0318L89.35 35.0954L88.7423 34.1591L88.3727 33.3693L88.0032 32.5796L87.704 31.6619L87.4048 30.7442L87.2323 29.8495C87.1375 29.3574 87.0225 28.5858 86.9769 28.1348L86.8939 27.3149L86.8925 26.2112L86.8911 25.1074L86.9785 24.2693C87.0266 23.8083 87.1439 23.0281 87.2391 22.5354L87.4124 21.6397L87.7072 20.723L88.0021 19.8064L88.4513 18.8834L88.9006 17.9604L89.4301 17.1697L89.9596 16.379L90.7996 15.4792L91.6396 14.5793L92.4086 13.9948C93.6304 13.0662 94.3879 12.6176 95.7091 12.0403L96.6374 11.6348L97.6345 11.3409L98.6316 11.0471L99.6597 10.8526L100.688 10.6582L103.304 10.6598L105.92 10.6613L107.101 10.773C110.439 11.0884 113.138 11.6579 115.277 12.4983L115.875 12.7332L115.904 12.8871L115.933 13.0411L114.815 15.7117L113.696 18.3824H113.613C113.567 18.3824 113.029 18.2069 112.417 17.9924L111.304 17.6024L110.173 17.3495L109.042 17.0966L107.818 16.9523L106.595 16.8081L105.582 16.859L104.569 16.9099L103.868 17.0852L103.166 17.2606L102.56 17.5495L101.954 17.8384L101.421 18.251L100.889 18.6636L100.47 19.1918L100.052 19.7201L99.7209 20.3709L99.3896 21.0217L99.1695 21.7086L98.9494 22.3955L98.79 23.3449L98.6307 24.2943L98.5723 25.3731L98.5139 26.4519L98.6151 27.636L98.7163 28.8201L98.9186 29.7358L99.1209 30.6515L99.4123 31.341C99.5726 31.7201 99.8302 32.2494 99.9848 32.5171L100.266 33.0037L100.814 33.5709L101.363 34.1381L101.88 34.4592C102.495 34.8409 103.312 35.1666 104.138 35.3591L104.738 35.4992L106.088 35.5005L107.438 35.5018L108.409 35.3519C108.943 35.2694 109.797 35.1061 110.307 34.989L111.235 34.776L112.399 34.3746L113.563 33.9732L113.673 34.0963C113.808 34.2464 115.919 39.2905 115.919 39.463V39.5857L115.687 39.6973C115.206 39.9285 113.509 40.4818 112.518 40.7307C111.184 41.0656 109.228 41.3857 107.481 41.555L106.088 41.6898L103.81 41.7255L101.532 41.7611L100.772 41.6762L100.772 41.6762ZM136.593 41.7198C136.384 41.7018 135.719 41.644 135.116 41.5914C132.734 41.3837 130.253 40.881 128.248 40.1999L127.184 39.8386L125.961 39.2117L124.737 38.5848L123.896 37.9124L123.056 37.24L122.524 36.5927L121.992 35.9455L121.619 35.2085L121.246 34.4716L121.063 33.8276L120.881 33.1837L120.837 32.0186L120.794 30.8535L120.936 30.0815C121.173 28.7898 121.523 27.8983 122.189 26.8834L122.529 26.3656L123.134 25.752L123.739 25.1383L124.383 24.6939C124.737 24.4495 125.398 24.0596 125.852 23.8275L126.678 23.4055L127.564 23.0898C129.722 22.3205 132.227 21.8475 135.622 21.5685L136.804 21.4713L139.546 21.4156L142.289 21.3599L142.316 20.8852L142.344 20.4105L142.249 19.4612C142.133 18.3161 142.036 17.8815 141.759 17.2701L141.548 16.8051L141.214 16.4632L140.88 16.1214L140.342 15.8639L139.804 15.6065L139.063 15.4744L138.323 15.3424L135.791 15.3874L133.26 15.4324L132.163 15.6085C130.457 15.8822 129.169 16.2767 127.44 17.0545C126.554 17.453 126.425 17.487 126.34 17.3456C126.311 17.2976 125.93 16.2614 125.493 15.0431L124.699 12.828L124.787 12.7202L124.874 12.6123L125.591 12.347C127.787 11.5344 131.086 10.9379 134.719 10.6966L136.263 10.5941L139.149 10.6399L142.036 10.6858L143.006 10.8245C145.068 11.1192 146.528 11.486 148.027 12.0867L148.871 12.4249L149.559 12.8361C149.938 13.0622 150.557 13.4959 150.934 13.7998L151.62 14.3524L152.11 14.9757C153.036 16.1521 153.562 17.2412 153.888 18.6551L154.055 19.3749L154.142 20.3242L154.229 21.2736L154.229 30.0921L154.229 38.9107L154.111 39.0312L153.993 39.1516L152.698 39.5537C149.522 40.5391 146.472 41.1755 143.09 41.558L141.867 41.6964L139.42 41.7245C138.074 41.7399 136.802 41.7378 136.593 41.7198ZM141.651 35.8953L142.279 35.8161L142.346 35.7081L142.413 35.6002L142.414 30.9719L142.415 26.3436L142.289 26.2363L142.162 26.129L140.116 26.2249L138.069 26.3207L137.226 26.4515C136.762 26.5235 136.078 26.6619 135.707 26.7592L135.032 26.936L134.344 27.2746L133.657 27.6132L133.186 28.0534L132.715 28.4936L132.459 29.0265L132.202 29.5595L132.114 30.1201L132.025 30.6808L132.078 31.1987C132.108 31.4835 132.185 31.9392 132.251 32.2114L132.369 32.7064L132.592 33.1561L132.815 33.6059L133.286 34.1109L133.757 34.616L134.237 34.9139C135.156 35.4852 136.36 35.8367 137.917 35.9884L138.66 36.0608L139.842 36.0177C140.491 35.994 141.305 35.9389 141.651 35.8953H141.651ZM0.538679 41.0231L0.482422 40.9655V20.704V0.442518L0.630093 0.399754C0.711312 0.376234 6.64452 0.345661 13.815 0.331815L26.8522 0.306641L27.9844 0.45579L29.1166 0.604941L30.094 0.829008C31.3845 1.12486 32.4039 1.47727 33.4341 1.98374L34.278 2.39858L35.0171 2.93751L35.7563 3.47645L36.3358 4.10033C37.0221 4.83929 37.4651 5.48761 37.9272 6.4291L38.2661 7.11954L38.481 7.81636C38.5992 8.19961 38.7582 8.84042 38.8342 9.24039L38.9724 9.96761L39.0205 11.1327L39.0687 12.2978L38.966 13.1997L38.8633 14.1015L38.6648 14.883L38.4662 15.6646L38.1644 16.3859L37.8626 17.1071L37.3895 17.8526L36.9164 18.5981L36.1457 19.3781L35.375 20.1582L34.5778 20.7019C33.6887 21.3083 32.8411 21.7631 31.7314 22.2293C31.322 22.4013 30.9547 22.5731 30.9153 22.6112L30.8436 22.6804L35.7884 31.7618C38.5081 36.7566 40.7333 40.8967 40.7333 40.9619V41.0806H33.6484H26.5636L24.7059 37.3048C22.7832 33.3969 20.7794 29.4888 19.3181 26.7971L18.4748 25.2436L15.8342 25.2208L13.1936 25.198L13.1259 25.3071L13.0581 25.4162L13.0568 33.2484L13.0555 41.0806H6.82524H0.594936L0.538679 41.0231ZM16.1355 18.8922C21.2902 18.4033 24.216 16.8562 25.7015 13.8338L25.9647 13.2984L26.1835 12.5392L26.4024 11.78L26.3558 11.1759L26.3093 10.5717L26.1482 10.0929C26.0595 9.82956 25.901 9.44118 25.7958 9.22986L25.6046 8.84564L25.085 8.32387L24.5654 7.80211L23.8524 7.44331L23.1394 7.08452L22.4643 6.90914C22.093 6.81268 21.5234 6.69056 21.1985 6.63777L20.6079 6.54178L16.9577 6.49697L13.3075 6.45216L13.1815 6.55908L13.0555 6.66599V12.7329V18.7998L13.1111 18.9477L13.1666 19.0957L14.1869 19.038C14.7481 19.0062 15.625 18.9406 16.1355 18.8922Z" fill="#8EB6D6"/>
<path d="M84.3167 66.9638C78.5695 66.6212 73.0542 65.8461 57.9891 63.2639C46.9951 61.3795 43.0398 60.7841 38.6653 60.3553L37.062 60.1981L33.3913 60.2039L29.7206 60.2097L28.1174 60.3141C21.5347 60.7429 15.748 61.5014 8.58261 62.8746C6.46894 63.2797 2.62468 64.0842 1.34853 64.3885L0.637074 64.5582L0.559437 64.5091L0.481801 64.4601L0.483088 58.3159L0.484381 52.1718L0.549018 52.0678L0.61366 51.9637L3.14251 51.3161C11.9504 49.0602 18.1978 48.1205 26.421 47.8146L28.7751 47.7271L33.5936 47.7276L38.4121 47.7281L40.2264 47.815C46.6232 48.1213 50.9958 48.7308 63.4318 51.0493C75.6632 53.3297 79.8984 53.9352 86.1309 54.2947L87.8608 54.3944L91.8268 54.3455L95.7928 54.2966L97.2274 54.2041C99.4242 54.0624 102.817 53.7829 105.202 53.547C106.385 53.43 107.615 53.3093 107.934 53.2789L108.515 53.2237L108.483 53.3213L108.45 53.419L98.1134 60.2391L87.7764 67.0592L86.6372 67.0467C86.0107 67.0399 84.9665 67.0026 84.3167 66.9639V66.9638ZM111.078 62.9367L111.038 62.87L115.175 55.9458L119.312 49.0216H136.728H154.145L154.123 55.9908L154.102 62.9599L132.61 62.9817L111.119 63.0034L111.078 62.9367ZM136.888 41.6819C133.641 41.5298 130.598 40.9798 128.069 40.0878L127.183 39.7752L126.219 39.3041L125.255 38.8329L124.534 38.3429L123.814 37.8528L123.189 37.2452L122.564 36.6376L122.197 36.1117L121.83 35.5859L121.533 34.9462L121.237 34.3066L121.065 33.6162L120.893 32.9257L120.842 32.1921L120.791 31.4585L120.889 30.6818C121.14 28.7117 121.759 27.3094 122.964 25.9867L123.471 25.4309L124.143 24.9193L124.815 24.4078L125.915 23.8565L127.015 23.3052L127.901 23.0111C129.765 22.3923 131.951 21.9629 134.525 21.7101L135.875 21.5775L137.985 21.4918C139.145 21.4447 140.603 21.4057 141.224 21.4051L142.355 21.404L142.307 20.0878L142.259 18.7717L142.088 18.1078C141.877 17.2855 141.735 17.0013 141.293 16.5098L140.944 16.1233L140.477 15.8826L140.01 15.642L139.335 15.4807L138.66 15.3195L136.381 15.325L134.103 15.3306L133.132 15.4401C132.599 15.5003 131.765 15.6269 131.281 15.7214L130.399 15.8932L129.424 16.2223C128.888 16.4033 128.013 16.7475 127.479 16.9871L126.508 17.4229L126.409 17.3205L126.31 17.2182L125.533 15.0403L124.756 12.8623L124.853 12.7427L124.95 12.623L125.56 12.3987C127.57 11.6606 130.267 11.1269 133.47 10.8337L134.947 10.6985L137.225 10.6455L139.503 10.5924L140.98 10.6937L142.457 10.7949L143.626 10.9676L144.795 11.1402L145.912 11.4329L147.028 11.7256L147.907 12.0815L148.786 12.4374L149.492 12.8428L150.199 13.2481L150.882 13.8091L151.564 14.3701L152.06 14.9742C153.157 16.3111 153.796 17.8542 154.054 19.792L154.144 20.4671V29.7431V39.019L153.87 39.1356C153.719 39.1997 152.85 39.4701 151.938 39.7366C148.044 40.8749 144.505 41.4895 140.718 41.6851C138.952 41.7763 138.904 41.7763 136.888 41.6819V41.6819ZM141.245 35.9862C141.726 35.9369 142.186 35.876 142.268 35.8507L142.416 35.8048L142.394 30.9994L142.372 26.1939L140.432 26.2081L138.491 26.2222L137.352 26.3969L136.212 26.5715L135.456 26.7976L134.7 27.0237L134.121 27.3347L133.542 27.6458L133.128 28.027L132.713 28.4082L132.395 29.0659L132.078 29.7235L132.078 30.8068L132.078 31.8901L132.237 32.3647C132.325 32.6258 132.483 33.0159 132.588 33.2317L132.78 33.6239L133.168 34.0655L133.557 34.5071L134.041 34.8364L134.525 35.1657L135.242 35.4415L135.959 35.7174L136.677 35.8505C137.661 36.0331 137.817 36.0463 139.178 36.062L140.372 36.0759L141.245 35.9862ZM59.7611 41.6301C58.5903 41.5064 57.2586 41.3054 56.3598 41.1167L55.3212 40.8987L54.2689 40.5546L53.2165 40.2105L52.4358 39.8477C51.3127 39.3259 50.3218 38.7387 49.5022 38.1096L48.7872 37.5607L47.9454 36.665L47.1036 35.7693L46.6275 35.038C46.3656 34.6357 45.9791 33.9535 45.7685 33.522L45.3855 32.7374L45.0815 31.8441L44.7775 30.9508L44.5727 29.9101L44.3679 28.8694L44.2707 27.7043L44.1735 26.5391L44.2293 25.4603C44.4023 22.117 45.1498 19.6156 46.6659 17.3064L47.1772 16.5277L48.0544 15.6067L48.9316 14.6858L49.7053 14.1212C50.1308 13.8108 50.8207 13.3629 51.2384 13.1261L51.9979 12.6954L52.9389 12.3097C54.6818 11.5954 56.6619 11.1152 58.9173 10.8599L59.9299 10.7453L62.7567 10.7501L65.5836 10.755L66.9734 10.9461L68.3631 11.1371L69.3361 11.359C71.8697 11.9368 74.0111 12.8918 75.7518 14.2204L76.3847 14.7034L77.1038 15.4496L77.823 16.1959L78.3378 16.9659L78.8526 17.736L79.2487 18.5441C79.7548 19.5769 80.0673 20.4471 80.3386 21.58L80.5548 22.4828L80.6848 23.5013L80.8148 24.5198V26.1939V27.868L80.6848 28.8865L80.5548 29.905L80.339 30.8112L80.1232 31.7174L79.833 32.4896C79.6734 32.9143 79.3501 33.6384 79.1147 34.0989L78.6867 34.9361L78.1551 35.6605L77.6235 36.3849L76.7904 37.2013L75.9573 38.0177L75.2413 38.5085C74.8475 38.7784 74.2032 39.1743 73.8095 39.3883L73.0937 39.7775L72.1233 40.1578C70.4908 40.7976 68.9037 41.1917 66.8072 41.4779L65.7524 41.622L62.9255 41.6439C61.3708 41.6559 59.9468 41.6497 59.7611 41.6301V41.6301ZM64.8663 35.9495L65.4992 35.7974L66.114 35.5093L66.7289 35.2211L67.2648 34.6948L67.8008 34.1684L68.0583 33.6742L68.3159 33.18L68.5232 32.4481L68.7306 31.7163L68.8448 30.8538L68.9589 29.9913V26.0645V22.1376L68.8518 21.3942C68.793 20.9854 68.688 20.4223 68.6185 20.1428L68.4923 19.6347L68.1841 18.9874L67.8759 18.3401L67.3859 17.8482L66.8958 17.3562L66.2819 17.0587L65.668 16.7611L65.1142 16.6229L64.5605 16.4847L63.6173 16.4071L62.6742 16.3296L61.7071 16.4086L60.7401 16.4876L59.9993 16.7072L59.2585 16.9268L58.8381 17.1588L58.4177 17.3908L57.94 17.8672L57.4622 18.3437L57.1608 18.9559L56.8594 19.568L56.6922 20.2487C56.6003 20.623 56.4844 21.2788 56.4346 21.706L56.3441 22.4828L56.3438 26.0894L56.3436 29.6961L56.4324 30.5342C56.4813 30.9951 56.5967 31.7023 56.6889 32.1058L56.8564 32.8394L57.1667 33.4819L57.4769 34.1244L57.9457 34.6144L58.4144 35.1044L59.0034 35.4056C59.733 35.7787 60.0661 35.8906 60.8872 36.0381L61.5332 36.1542L62.8833 36.1279L64.2334 36.1016L64.8663 35.9495H64.8663ZM99.9276 41.5165C98.0207 41.2063 96.3817 40.6728 94.7381 39.8271L93.852 39.3712L93.1203 38.8671C92.7178 38.5898 92.0786 38.0916 91.6998 37.7599L91.011 37.1569L90.4063 36.4378C90.0737 36.0422 89.5849 35.3875 89.32 34.9828L88.8383 34.2469L88.4619 33.4569C88.2549 33.0223 87.9483 32.2613 87.7805 31.7656L87.4755 30.8645L87.2683 29.8175L87.061 28.7706L86.973 27.5038L86.8851 26.2371L86.9707 25.0072L87.0564 23.7774L87.1934 22.9575L87.3303 22.1376L87.6211 21.1451L87.9118 20.1526L88.404 19.1057L88.8962 18.0588L89.3681 17.3364C89.6276 16.9391 90.1009 16.3072 90.4198 15.9321L90.9996 15.2501L91.6664 14.6565C92.0331 14.3301 92.6939 13.815 93.1348 13.5119L93.9364 12.9608L94.8687 12.4851L95.801 12.0094L96.7801 11.6641L97.7593 11.3187L98.7169 11.103C99.2436 10.9844 100.035 10.8368 100.476 10.7751L101.278 10.6629L103.345 10.6752L105.413 10.6875L106.636 10.7838C109.185 10.9843 111.54 11.3786 113.429 11.9212C114.511 12.2321 115.659 12.6615 115.82 12.816L115.933 12.924L114.82 15.5889C114.207 17.0546 113.681 18.2819 113.65 18.3163L113.594 18.3787L112.625 18.0296C110.89 17.4041 109.027 17.0054 107.053 16.8369L106.078 16.7537L105.23 16.8353L104.382 16.9169L103.716 17.0886L103.05 17.2603L102.333 17.6205L101.615 17.9807L100.852 18.7646L100.089 19.5484L99.7023 20.3252C99.2402 21.2544 99.0119 21.9427 98.7842 23.0922L98.6143 23.95L98.5627 25.5571L98.511 27.1642L98.6164 28.1462L98.7217 29.1283L98.9152 29.9114C99.1615 30.9082 99.4838 31.7325 99.9203 32.4823L100.265 33.0746L100.953 33.7422L101.642 34.4098L102.346 34.7637L103.05 35.1177L103.725 35.3018L104.4 35.486L105.548 35.5337L106.697 35.5813L107.658 35.4799L108.619 35.3786L109.871 35.1219L111.122 34.8653L112.233 34.4727C112.845 34.2569 113.413 34.0729 113.497 34.0639L113.649 34.0477L114.784 36.7527L115.919 39.4576L115.875 39.5303C115.811 39.6353 114.665 40.0755 113.659 40.3811C112.099 40.8551 110.266 41.2055 107.902 41.4818L106.763 41.6149L103.851 41.648L100.94 41.6812L99.9276 41.5165ZM1.91632 40.9989L0.523992 40.9521L0.502716 20.7325L0.481445 0.512851L0.602206 0.465457L0.722966 0.418061L14.0404 0.403367L27.3579 0.388672L28.3705 0.542824C28.9274 0.627608 29.8476 0.811196 30.4153 0.9508L31.4476 1.20462L32.2718 1.51938C33.3422 1.92818 33.8689 2.20301 34.7915 2.83413L35.5468 3.35088L36.2631 4.11371L36.9794 4.87654L37.2843 5.35122C38.2443 6.84595 38.7529 8.43904 38.9648 10.6158L39.0614 11.6083L39.0065 12.3419C38.9762 12.7454 38.8926 13.4445 38.8206 13.8954L38.6897 14.7153L38.4782 15.4058L38.2668 16.0962L37.9365 16.7753C37.7549 17.1488 37.4651 17.6731 37.2925 17.9404L36.9787 18.4265L36.3081 19.1432L35.6376 19.8599L35.0418 20.3183C34.7142 20.5704 34.1054 20.9764 33.689 21.2205L32.9319 21.6643L31.8892 22.1121L30.8465 22.56L30.8822 22.7372C30.9019 22.8346 33.1274 26.9698 35.8278 31.9264L40.7376 40.9385L40.6671 41.0105L40.5967 41.0826L33.5976 41.0605L26.5985 41.0384L24.6998 37.1963C21.9105 31.5518 18.6656 25.3369 18.4265 25.1813L18.3289 25.1177L16.599 25.127C15.6476 25.1321 14.4705 25.1606 13.9831 25.1904L13.0971 25.2446L13.0549 33.1415L13.0127 41.0384L8.16069 41.042C5.49206 41.044 2.6821 41.0246 1.91632 40.9989ZM14.7328 19.0321C16.1374 18.9671 17.5998 18.7859 18.9245 18.5126L19.942 18.3027L20.8187 17.9906C21.8301 17.6305 22.3171 17.3913 23.1316 16.8543L23.7151 16.4696L24.2174 15.9809L24.7196 15.4921L25.0912 14.9607L25.4628 14.4294L25.7917 13.7093L26.1206 12.9892L26.2541 12.4589L26.3875 11.9286V11.3767V10.8247L26.2583 10.3174L26.1291 9.80999L25.8702 9.31322L25.6113 8.81645L25.25 8.43079C25.0513 8.21867 24.6848 7.90437 24.4356 7.73234L23.9826 7.41957L23.3432 7.16681L22.7037 6.91405L21.8243 6.71801L20.9448 6.52197L17.0209 6.51915L13.0971 6.51634L13.0755 12.768L13.0538 19.0197L13.1591 19.0863L13.2645 19.1529L13.434 19.1186C13.5272 19.0998 14.1116 19.0609 14.7328 19.0321Z" fill="#639AC7"/>
<path d="M85.3256 66.9689C79.5521 66.7076 74.0351 65.9574 59.0023 63.3892C44.3756 60.8903 40.8274 60.3876 36.1685 60.1539L34.4306 60.0667L31.4852 60.1517C25.0949 60.3361 19.4783 60.9217 12.3529 62.1464C9.08837 62.7075 3.70805 63.7796 1.38426 64.3321C1.06811 64.4072 0.754835 64.4687 0.688099 64.4687H0.566762V58.2614V52.0541L0.841008 51.9636C1.37955 51.7858 5.87145 50.6634 7.57058 50.2821C12.0154 49.2846 16.0376 48.6367 20.1859 48.2501C23.0026 47.9875 24.6394 47.9027 28.8352 47.8017L32.6746 47.7092L36.1344 47.7632C40.0443 47.8242 41.9774 47.915 44.6571 48.1635C49.9227 48.652 53.3566 49.1991 65.7529 51.5245C74.3327 53.1339 79.4875 53.8764 84.5911 54.2377L86.4682 54.3707L88.8103 54.4255L91.1523 54.4803L93.937 54.3791C97.9447 54.2334 102.196 53.9196 106.805 53.429L108.282 53.2719L108.349 53.3328L108.415 53.3937L98.0961 60.2042L87.777 67.0147L87.3129 67.0262C87.0576 67.0326 86.1633 67.0068 85.3256 66.9689V66.9689ZM111.114 62.8506C111.117 62.815 112.968 59.6982 115.228 55.9245L119.336 49.0632L136.551 49.0396L153.765 49.016L153.955 49.063L154.146 49.1099L154.124 55.991L154.102 62.8721L132.606 62.8938L111.109 62.9155L111.114 62.8506H111.114ZM60.5212 41.6327C56.0311 41.2824 52.9372 40.3671 50.2686 38.5993C48.8703 37.6731 47.7761 36.6034 46.7922 35.2008L46.3309 34.543L45.9358 33.7607C45.7185 33.3304 45.4121 32.636 45.255 32.2177L44.9692 31.457L44.7513 30.5508L44.5334 29.6446L44.4054 28.6261L44.2774 27.6076V26.2708V24.9341L44.3664 24.0961L44.4555 23.258L44.6685 22.2756L44.8816 21.2931L45.178 20.42L45.4745 19.5469L45.9 18.6981L46.3256 17.8492L46.7883 17.1877C47.0428 16.8239 47.4969 16.2444 47.7974 15.9L48.3438 15.2737L49.1774 14.588L50.0109 13.9023L50.8359 13.4054L51.6609 12.9085L52.6228 12.4914L53.5846 12.0743L54.5214 11.7848C55.5802 11.4575 56.805 11.1926 58.1371 11.0028L59.0441 10.8735L60.7883 10.7883L62.5324 10.703L64.3197 10.787L66.1069 10.8709L67.0807 11.0015C69.6176 11.3416 71.7153 11.9555 73.5812 12.9037L74.3535 13.2962L75.1584 13.8449L75.9633 14.3935L76.7025 15.1016L77.4416 15.8097L78.057 16.6452L78.6723 17.4807L79.1587 18.4532L79.6451 19.4257L79.9721 20.4443L80.2991 21.4629L80.4721 22.4036C80.9246 24.8645 80.9246 27.5202 80.4721 29.9812L80.2991 30.9219L79.9769 31.9254L79.6547 32.929L79.2962 33.6602C78.8306 34.6099 78.3008 35.4448 77.6603 36.2386L77.1447 36.8776L76.4696 37.4768C76.0983 37.8064 75.454 38.3092 75.0378 38.5943L74.281 39.1126L73.3353 39.5812L72.3895 40.0498L71.2408 40.4364L70.0921 40.823L68.8507 41.0769C68.168 41.2166 67.0967 41.3929 66.4702 41.4688L65.331 41.6067L63.1371 41.6362C61.9304 41.6524 60.7532 41.6508 60.5212 41.6327V41.6327ZM63.7699 36.1581C64.2108 36.1109 64.7994 36.0134 65.0779 35.9415L65.5842 35.8108L66.2029 35.5119L66.8216 35.213L67.344 34.6727L67.8663 34.1324L68.1434 33.5934L68.4206 33.0543L68.6178 32.2556L68.8151 31.457L68.9051 30.5508L68.9952 29.6446L69.0487 27.4006L69.1021 25.1567L69.0092 23.258L68.9162 21.3593L68.7508 20.5394L68.5853 19.7195L68.2459 19.0178L67.9065 18.3161L67.447 17.8461L66.9876 17.3762L66.4968 17.1106C66.2269 16.9646 65.758 16.7675 65.4548 16.6727L64.9036 16.5002L64.0684 16.3927L63.2333 16.2852L62.1304 16.3391L61.0275 16.393L60.3102 16.571L59.5929 16.749L58.9904 17.0532L58.3878 17.3574L57.9118 17.8403L57.4359 18.3232L57.1018 19.0213L56.7678 19.7195L56.642 20.2276C56.5728 20.507 56.468 21.0702 56.4091 21.479L56.302 22.2223V26.1061V29.9898L56.4076 30.775C56.4657 31.2068 56.5894 31.867 56.6824 32.2421L56.8515 32.9242L57.1083 33.4613L57.3652 33.9985L57.7957 34.4803L58.2263 34.9621L58.5989 35.2243L58.9715 35.4865L59.6197 35.728L60.268 35.9694L60.9009 36.0656C62.1577 36.2565 62.6902 36.2737 63.7699 36.1581ZM100.814 41.5926C99.2855 41.4186 97.894 41.087 96.4263 40.547L95.709 40.2831L94.6542 39.7296L93.5995 39.1761L92.7978 38.5962L91.9962 38.0162L91.0679 37.0668L90.1397 36.1175L89.6038 35.3407L89.0678 34.564L88.5297 33.442L87.9915 32.32L87.7461 31.5433C87.4467 30.5958 87.1729 29.2324 87.0615 28.1342L86.9783 27.3143L86.9769 26.2105L86.9754 25.1068L87.0628 24.2687C87.1832 23.115 87.4457 21.8055 87.7462 20.8595L87.9987 20.0647L88.5333 18.9427L89.0679 17.8208L89.6039 17.044L90.1398 16.2673L91.068 15.3179L91.9962 14.3686L92.7979 13.789L93.5995 13.2094L94.5699 12.6954C96.2689 11.7956 97.9215 11.2347 99.8542 10.9018L100.772 10.7437L103.346 10.7449L105.919 10.746L107.101 10.8582C110.402 11.1715 112.822 11.6735 115.105 12.5182L115.834 12.7882V12.9118C115.834 13.0461 113.745 18.1214 113.642 18.2359L113.58 18.3058L112.439 17.9099L111.298 17.514L110.17 17.2618L109.042 17.0097L107.818 16.8654L106.594 16.7212L105.582 16.7721L104.569 16.823L103.852 17.0005L103.135 17.1779L102.362 17.5683L101.589 17.9588L101.028 18.4848L100.466 19.0108L100.146 19.4946C99.7001 20.1664 99.333 20.9342 99.08 21.724L98.865 22.3949L98.7056 23.3443L98.5462 24.2936L98.4878 25.3725L98.4295 26.4513L98.5306 27.6354L98.6318 28.8195L98.8303 29.7181L99.0288 30.6167L99.2581 31.2094C99.3842 31.5355 99.6403 32.0741 99.8272 32.4063L100.167 33.0105L100.807 33.6578L101.447 34.305L101.933 34.5965C102.51 34.9425 103.323 35.2548 104.143 35.4454L104.738 35.5837L106.046 35.5858L107.354 35.5878L108.367 35.4378C108.923 35.3553 109.797 35.1921 110.307 35.075L111.236 34.8622L112.363 34.4716C112.982 34.2567 113.527 34.0936 113.572 34.109L113.654 34.1371L114.744 36.7578C115.344 38.1991 115.834 39.4132 115.834 39.4556V39.5326L115.467 39.6939C113.655 40.4881 110.619 41.163 107.481 41.4689L106.088 41.6047L103.81 41.6395L101.531 41.6743L100.814 41.5926ZM136.466 41.6309C133.516 41.4432 130.484 40.8834 128.281 40.1199L127.268 39.769L126.304 39.3013L125.34 38.8336L124.532 38.2827L123.724 37.7317L123.114 37.116L122.503 36.5002L122.176 36.0067C121.996 35.7354 121.731 35.2736 121.586 34.9807L121.324 34.4481L121.145 33.8156L120.966 33.1831L120.921 32.0807L120.875 30.9784L120.979 30.3115L121.083 29.6446L121.326 28.8678L121.569 28.0911L121.941 27.4438L122.314 26.7965L122.736 26.3063C123.67 25.2185 124.614 24.5216 126.161 23.7757L127.1 23.323L127.901 23.0555C129.958 22.3692 132.403 21.9183 135.454 21.6623L136.551 21.5702L139.377 21.5182L142.204 21.4662L142.322 21.3706L142.439 21.275L142.384 20.2383C142.321 19.0422 142.223 18.358 142.02 17.6979L141.877 17.2298L141.619 16.8372L141.36 16.4446L140.956 16.1333L140.552 15.8219L140.028 15.6359L139.504 15.4499L138.871 15.3518L138.238 15.2537L135.749 15.301L133.26 15.3483L132.374 15.4836C130.618 15.7517 129.224 16.1652 127.505 16.9272C126.986 17.1576 126.526 17.3461 126.483 17.3461H126.406L125.635 15.1889C125.211 14.0024 124.864 12.9575 124.864 12.8668V12.7019L125.586 12.4347C127.736 11.639 131.052 11.0317 134.571 10.789L135.882 10.6986L138.285 10.6977L140.687 10.6968L141.741 10.7893C143.108 10.9092 144.251 11.0847 145.443 11.3576L146.404 11.5774L147.257 11.8809C148.355 12.2712 149.29 12.7293 150.136 13.2923L150.811 13.7413L151.613 14.5737L152.415 15.4061L152.756 16.0093C152.944 16.3411 153.202 16.8555 153.331 17.1526L153.564 17.6926L153.769 18.5185L153.974 19.3444L154.059 20.2655L154.144 21.1867L154.144 30.0439L154.145 38.9012L154.039 38.9904C153.881 39.1238 151.856 39.7432 150.18 40.1707C147.511 40.8517 145.696 41.1841 143.048 41.4772L141.867 41.608L139.42 41.6356C138.074 41.6507 136.745 41.6487 136.466 41.6309V41.6309ZM141.656 35.9809L142.289 35.9016L142.394 35.7557L142.5 35.6098V30.972V26.3342L142.367 26.1985L142.234 26.0629L142.093 26.065C142.015 26.0662 141.078 26.1043 140.01 26.1498L138.07 26.2324L137.226 26.3639C136.762 26.4362 136.078 26.5748 135.707 26.6718L135.032 26.8481L134.266 27.2269L133.5 27.6057L133.031 28.0776L132.562 28.5495L132.345 29.0189L132.128 29.4884L132.036 30.0795L131.943 30.6706L132.033 31.4217L132.122 32.1727L132.241 32.5171C132.419 33.0337 132.611 33.3934 132.976 33.8945L133.306 34.347L133.905 34.7768L134.503 35.2066L135.148 35.4611L135.794 35.7156L136.484 35.8586C136.863 35.9373 137.508 36.0342 137.917 36.0741L138.66 36.1465L139.842 36.1034C140.491 36.0797 141.308 36.0246 141.656 35.9809ZM26.7256 41.0243L26.599 40.9887L24.682 37.0859C22.3065 32.2499 19.1402 26.1343 18.6063 25.3509L18.4445 25.1136H15.7952H13.1458L13.0585 25.2805L12.9711 25.4474V33.2211V40.9948L6.79004 40.9727L0.608953 40.9505L0.587677 20.7596L0.566406 0.568731L0.629869 0.508305L0.693337 0.447882L13.7728 0.418277L26.8522 0.388672L27.9844 0.539655C31.4283 0.998924 33.8917 1.98078 35.7781 3.64601L36.2658 4.07644L36.7957 4.75381L37.3255 5.43118L37.7128 6.18875C38.2 7.14187 38.4885 7.96738 38.7089 9.03974L38.8818 9.88069L38.9337 11.1388L38.9857 12.3969L38.8807 13.2533L38.7758 14.1096L38.5706 14.9295L38.3654 15.7494L37.8681 16.7851L37.3708 17.8208L36.8105 18.532L36.2503 19.2432L35.7085 19.7133C34.5053 20.7573 33.3045 21.4885 31.7162 22.1441L30.8182 22.5148L30.8235 22.6706L30.8288 22.8265L35.6433 31.6727C38.2913 36.5382 40.5047 40.6113 40.562 40.7242L40.6663 40.9293L40.5521 41.0034L40.4379 41.0774L33.6451 41.0687C29.909 41.0639 26.7952 41.0439 26.7256 41.0243H26.7256ZM15.0385 19.0703C15.6883 19.0222 16.7843 18.904 17.4741 18.8077L18.7283 18.6326L19.6968 18.3772L20.6654 18.1218L21.467 17.7842L22.2686 17.4467L22.9537 17.0296L23.6388 16.6125L24.3595 15.8754L25.0801 15.1384L25.425 14.5377C25.8186 13.852 26.1572 13.0242 26.344 12.2909L26.4725 11.7863L26.471 11.4376C26.4702 11.2459 26.4152 10.8265 26.3487 10.5058L26.2279 9.92259L25.9177 9.31887L25.6075 8.71516L25.0764 8.20697L24.5452 7.69879L23.9374 7.38778L23.3295 7.07677L22.7703 6.90699C22.4628 6.81361 21.8504 6.67333 21.4095 6.59526L20.6078 6.45331L16.9321 6.40902L13.2565 6.36473L13.1138 6.51065L12.9711 6.65658V12.7406V18.8246L13.0585 18.9916L13.1458 19.1585L13.5015 19.1582C13.6971 19.158 14.3888 19.1184 15.0385 19.0703V19.0703Z" fill="#4687BD"/>
<path d="M84.992 66.9178C77.7675 66.4399 74.0234 65.9223 58.2425 63.22C47.0731 61.3074 43.3154 60.737 39.1568 60.3229L37.3998 60.148L34.9104 60.0968L32.4211 60.0456L30.1006 60.1463C23.7361 60.4224 17.7683 61.1152 10.608 62.4091C8.6097 62.7702 3.64955 63.7787 1.78997 64.202C1.18662 64.3393 0.664502 64.4341 0.629694 64.4125L0.566406 64.3734V58.249V52.1246L0.756269 52.0434C1.03009 51.9263 3.95773 51.1677 5.91297 50.7071C12.5365 49.1468 17.6 48.3913 24.1938 47.9797L25.6705 47.8875L31.7883 47.8398L37.9061 47.792L40.0578 47.8916C46.7826 48.2029 51.0045 48.8027 65.2737 51.4742C74.2647 53.1576 78.5845 53.7967 84.106 54.2605L85.9202 54.4128L90.6879 54.4107L95.4555 54.4086L97.6917 54.258C100.383 54.0766 103.137 53.8428 106.076 53.546C107.275 53.4248 108.274 53.343 108.295 53.3642C108.316 53.3855 103.726 56.4463 98.0968 60.1662L87.861 66.9296L86.6375 66.9377C85.9645 66.9421 85.224 66.9332 84.992 66.9178ZM111.193 62.8374C111.193 62.7616 118.891 49.8317 119.226 49.3449L119.39 49.1076H136.725H154.06V56.012V62.9164H132.626H111.193V62.8374ZM136.803 41.5947C133.691 41.4367 130.877 40.9417 128.407 40.1176L127.352 39.7657L126.329 39.2692C125.138 38.6914 124.374 38.2028 123.568 37.5019L122.99 36.9996L122.537 36.4373L122.083 35.8751L121.748 35.2159L121.412 34.5566L121.184 33.7841L120.956 33.0117L120.95 31.7602L120.943 30.5088L121.098 29.8184C121.183 29.4386 121.364 28.8285 121.501 28.4626L121.751 27.7973L122.179 27.1249L122.608 26.4525L123.208 25.8417L123.808 25.2309L124.475 24.7732L125.141 24.3155L126.078 23.8552L127.015 23.3948L127.901 23.0989C130.934 22.0858 134.198 21.6581 140.052 21.5068L142.373 21.4468L142.36 20.109L142.346 18.7713L142.17 18.0883L141.993 17.4053L141.777 17.0292C141.659 16.8224 141.43 16.5179 141.268 16.3525L140.974 16.0518L140.492 15.8036L140.01 15.5553L139.335 15.394L138.66 15.2328L136.297 15.2431L133.934 15.2535L132.823 15.3924C130.843 15.6399 129.441 16.0325 127.563 16.8649L126.509 17.3325L126.452 17.2752C126.421 17.2436 126.044 16.2355 125.616 15.0348L124.837 12.8519L124.922 12.7651C124.968 12.7173 125.401 12.5412 125.884 12.3737C128.916 11.321 133.502 10.7085 138.391 10.7034L139.978 10.7018L141.218 10.7926C141.899 10.8426 142.983 10.9605 143.626 11.0548L144.795 11.2262L145.912 11.5188L147.028 11.8115L147.907 12.1659L148.786 12.5203L149.461 12.9191C150.359 13.4499 150.946 13.9008 151.574 14.5423L152.093 15.0733L152.443 15.6015C153.119 16.6184 153.545 17.638 153.859 18.9871L154.009 19.6344L154.037 29.3175L154.065 39.0007L153.24 39.2605C148.867 40.6367 144.988 41.3685 140.854 41.5978C139.185 41.6903 138.68 41.69 136.803 41.5947H136.803ZM141.23 36.0686L142.197 35.9759L142.349 35.8928L142.501 35.8097L142.479 30.9585L142.457 26.1072L140.558 26.1196L138.66 26.132L137.605 26.2731L136.55 26.4143L135.749 26.628L134.947 26.8417L134.23 27.2008L133.512 27.56L133.002 28.0851L132.492 28.6101L132.307 29.0165C132.206 29.24 132.085 29.5895 132.039 29.7932L131.955 30.1636L131.953 30.8187L131.951 31.4737L132.115 32.1265L132.278 32.7793L132.503 33.2336L132.728 33.6878L133.162 34.1614L133.597 34.6349L134.084 34.9593L134.571 35.2837L135.28 35.5461L135.989 35.8085L136.692 35.939C137.655 36.1179 137.822 36.1322 139.124 36.1477L140.263 36.1612L141.23 36.0686H141.23ZM59.7192 41.5387C58.9522 41.4777 57.3717 41.2401 56.3826 41.0371L55.3665 40.8286L54.1796 40.4377L52.9927 40.0468L51.736 39.4023L50.4792 38.7577L49.5896 38.0724L48.7 37.3872L47.9863 36.6199L47.2726 35.8526L46.7559 35.0794L46.2392 34.3062L45.8547 33.5216L45.4701 32.737L45.1661 31.8437L44.8621 30.9504L44.6573 29.9097L44.4525 28.869L44.3551 27.7039L44.2578 26.5388L44.3132 25.4168L44.3687 24.2948L44.4943 23.4318C44.8337 21.1002 45.54 19.1787 46.733 17.342L47.2621 16.5274L48.2378 15.5319L49.2134 14.5364L49.9729 14.0142C52.3575 12.3745 54.897 11.4733 58.4707 10.9987L59.5082 10.8609L61.7022 10.8138L63.8961 10.7667L65.2463 10.8666C68.2756 11.0909 70.6423 11.6241 72.7581 12.559C74.5911 13.369 75.8124 14.219 77.138 15.6072L77.7223 16.2192L78.2229 16.9343L78.7236 17.6493L79.1423 18.5012C79.6697 19.5743 79.9795 20.4318 80.2544 21.5796L80.4707 22.4824L80.604 23.5181L80.7372 24.5538L80.7399 26.1559L80.7425 27.7581L80.6024 28.8745L80.4623 29.991L80.2226 30.9447C79.9414 32.0634 79.5997 32.9748 79.0622 34.04L78.674 34.8093L78.1697 35.5071C77.8924 35.8909 77.3963 36.4905 77.0674 36.8396L76.4693 37.4742L75.7099 38.0573C73.1638 40.0125 70.0221 41.0927 65.6682 41.5099L64.74 41.5989L62.4195 41.5839C61.1432 41.5756 59.9281 41.5553 59.7192 41.5387H59.7192ZM64.8665 36.0374L65.4994 35.8873L66.2003 35.5451L66.9011 35.2029L67.3816 34.7103L67.8622 34.2177L68.1313 33.6987L68.4005 33.1796L68.6078 32.4478L68.8152 31.7159L68.9294 30.8535L69.0435 29.991V26.0641V22.1372L68.9364 21.3939C68.8776 20.9851 68.7719 20.4219 68.7017 20.1425L68.5741 19.6344L68.2823 19.0015L67.9904 18.3687L67.4622 17.8284L66.9339 17.2882L66.3011 16.9813L65.6682 16.6744L65.1026 16.5332L64.537 16.3919L63.6047 16.323L62.6724 16.2541L61.7154 16.3249L60.7583 16.3956L60.0085 16.6179L59.2588 16.8401L58.835 17.0713L58.4112 17.3025L57.8836 17.835L57.3559 18.3675L57.0217 19.0872L56.6875 19.807L56.5036 20.67L56.3196 21.5331L56.2821 25.4522L56.2446 29.3714L56.3382 30.3716L56.4318 31.3719L56.6065 32.1055L56.7812 32.8391L57.081 33.4863L57.3808 34.1336L57.939 34.6946L58.4973 35.2556L59.0689 35.5384L59.6405 35.8212L60.3338 35.9866C61.3481 36.2285 61.4097 36.2339 62.8835 36.2097L64.2337 36.1875L64.8665 36.0374ZM99.9278 41.4298C97.0516 40.962 94.6567 39.957 92.4991 38.3122L91.7366 37.731L90.8958 36.8368L90.055 35.9425L89.5382 35.1675L89.0215 34.3925L88.5947 33.5212L88.1678 32.6498L87.864 31.7569L87.5601 30.8641L87.3538 29.8219L87.1475 28.7797L87.0557 27.5157L86.964 26.2517L87.0543 24.9368L87.1446 23.622L87.3523 22.5725L87.5601 21.523L87.864 20.6302L88.1678 19.7373L88.5947 18.866L89.0215 17.9946L89.5382 17.2201L90.055 16.4457L90.8566 15.59L91.6583 14.7344L92.3333 14.1986C93.2533 13.4683 93.8455 13.0947 95.0198 12.5035L96.0186 12.0006L97.0526 11.6566L98.0866 11.3125L99.1338 11.0977L100.181 10.8828L101.421 10.7824L102.662 10.682L104.797 10.7785L106.932 10.8751L108.146 11.0072C109.767 11.1835 111.525 11.499 112.909 11.8617L114.044 12.1592L114.876 12.4752C115.333 12.6489 115.739 12.8214 115.778 12.8585L115.848 12.9258L114.773 15.5033C114.181 16.921 113.664 18.1249 113.624 18.1788L113.551 18.2767L112.604 17.9353C110.88 17.3139 108.947 16.9018 107.079 16.7575L106.129 16.6841L105.265 16.7539L104.4 16.8237L103.725 17.0006L103.05 17.1774L102.459 17.4657L101.869 17.7539L101.336 18.1659L100.804 18.5779L100.386 19.1061L99.9674 19.6344L99.6247 20.3075C99.1829 21.1754 98.9176 21.9821 98.6837 23.1683L98.4957 24.1222L98.4977 26.1936L98.4997 28.2649L98.6483 29.072C98.8386 30.1058 99.1526 31.1254 99.5162 31.8897L99.8036 32.4938L100.234 33.0806L100.665 33.6673L101.182 34.0996L101.7 34.532L102.375 34.8669L103.05 35.2017L103.767 35.4009L104.485 35.6L106.214 35.5918L107.944 35.5835L108.957 35.3958C110.304 35.1459 111.474 34.8398 112.501 34.4684C112.965 34.3005 113.401 34.1565 113.47 34.1484L113.595 34.1336L114.71 36.7659C115.322 38.2137 115.826 39.4245 115.829 39.4567C115.836 39.5386 114.689 39.9815 113.659 40.2945C112.109 40.7656 110.209 41.1315 107.986 41.3873L106.763 41.5281L103.852 41.5613L100.94 41.5945L99.9278 41.4298V41.4298ZM1.85325 40.9303L0.566406 40.9041V20.7514V0.598651L0.69003 0.550129L0.813659 0.50161L14.1281 0.488109L27.4425 0.474609L28.6239 0.668982C31.2268 1.09724 33.0039 1.73007 34.6246 2.8058L35.3091 3.26018L35.9146 3.84436L36.5201 4.42854L36.9392 4.99758L37.3583 5.56662L37.7281 6.30021L38.0979 7.0338L38.3147 7.70117C38.6034 8.58983 38.7638 9.41606 38.8806 10.6155L38.9772 11.608L38.9223 12.3416C38.8921 12.745 38.8084 13.4441 38.7365 13.8951L38.6056 14.715L38.3941 15.4054L38.1826 16.0958L37.8566 16.7663C37.6772 17.135 37.3718 17.6757 37.1779 17.9679L36.8252 18.4991L36.2049 19.1631L35.5847 19.8271L34.8467 20.3641C33.8731 21.0727 33.2379 21.4302 31.9148 22.0144L30.8179 22.4988L30.823 22.7064L30.8281 22.914L35.7383 31.9251C38.4389 36.8813 40.6485 40.9495 40.6485 40.9656C40.6485 40.9817 37.4969 40.9949 33.6449 40.9949H26.6413L25.0694 37.78C22.798 33.1346 19.4453 26.6427 18.6439 25.3384L18.4366 25.001L15.7825 25.0563L13.1283 25.1117L13.0495 25.1614L12.9708 25.2112V33.1031V40.9949L8.05543 40.9757C5.352 40.9652 2.56102 40.9448 1.85325 40.9303ZM16.4537 18.9867C16.9746 18.9315 17.9135 18.7908 18.5401 18.674L19.6792 18.4615L20.691 18.1162L21.7028 17.7709L22.3992 17.392C23.2977 16.9031 23.9376 16.3952 24.6818 15.5802L25.2806 14.9243L25.7463 13.9566L26.212 12.9889L26.342 12.4586L26.4721 11.9283V11.3763V10.8243L26.3429 10.317L26.2137 9.80963L25.9447 9.28477L25.6757 8.75991L25.1625 8.23814L24.6494 7.71638L23.932 7.35287L23.2145 6.98936L22.3957 6.77693L21.5769 6.5645L20.6703 6.47097L19.7636 6.37744L16.3883 6.40355L13.013 6.42967L12.991 12.7299L12.9691 19.0302L13.0841 19.1167L13.1991 19.2033L14.3527 19.1451C14.9873 19.1131 15.9327 19.0418 16.4537 18.9867Z" fill="#2B76B3"/>
<path d="M85.1787 66.8815C79.4173 66.6118 73.6348 65.8149 57.9891 63.1345C44.5646 60.8347 40.6311 60.2848 36.0916 60.0734L34.3617 59.9929L31.5349 60.0696L28.708 60.1463L26.7672 60.2804C19.8661 60.7574 13.0013 61.7784 4.19464 63.6375C2.96476 63.8971 1.69981 64.1711 1.38366 64.2462C1.06751 64.3214 0.772967 64.3829 0.729126 64.3829H0.649414L0.671076 58.2336L0.692734 52.0844L2.59136 51.589C10.3266 49.571 16.0658 48.5876 22.8856 48.1119L24.6576 47.9882L29.2565 47.8864L33.8554 47.7845L37.737 47.8835L41.6187 47.9825L43.222 48.1147C48.3958 48.5412 53.1691 49.2527 62.0591 50.9227C76.755 53.6833 81.6023 54.3326 88.8347 54.5093L91.1517 54.5659L93.8942 54.4651C97.8168 54.321 100.897 54.1019 105.651 53.6288C106.85 53.5095 107.905 53.4239 107.994 53.4386L108.158 53.4653L97.9671 60.1963L87.7764 66.9273L87.2279 66.9396C86.9262 66.9463 86.0041 66.9202 85.1787 66.8815ZM115.265 56.0328C117.498 52.2947 119.365 49.2077 119.414 49.1728L119.505 49.1093L136.761 49.1296L154.017 49.15L154.039 55.9897L154.061 62.8294H132.633H111.206L115.265 56.0328ZM60.4784 41.5469C56.6326 41.2091 54.4601 40.6855 52.0456 39.5146L50.9964 39.0058L50.147 38.4312L49.2976 37.8565L48.2399 36.7715L47.1823 35.6864L46.7113 34.9528C45.8356 33.5887 45.2231 32.1496 44.8344 30.543L44.6172 29.645L44.4892 28.6265L44.3611 27.608V26.2713V24.9346L44.4502 24.0965L44.5392 23.2585L44.753 22.2727C45.0015 21.1269 45.3389 20.1028 45.8058 19.0775L46.1376 18.3487L46.7014 17.4808L47.2652 16.613L48.0704 15.7618L48.8756 14.9105L49.5886 14.3626C50.8706 13.3772 52.4379 12.5661 54.1811 11.9858L55.1829 11.6523L56.1641 11.4412C56.7037 11.3251 57.5765 11.1689 58.1037 11.0942L59.0621 10.9582L60.6773 10.8691L62.2926 10.7799L63.6849 10.8321C64.4507 10.8608 65.6403 10.9411 66.3285 11.0105L67.5797 11.1369L68.4803 11.3128C69.6575 11.5429 70.4852 11.7592 71.4575 12.0908L72.2498 12.3611L73.276 12.8592L74.3021 13.3573L74.9637 13.8098C75.3275 14.0587 75.939 14.5337 76.3225 14.8654L77.0198 15.4685L77.5559 16.127C78.2099 16.9303 78.7364 17.7566 79.2112 18.725L79.5697 19.4562L79.8919 20.4598L80.2141 21.4633L80.3863 22.404C80.481 22.9214 80.5971 23.747 80.6444 24.2385L80.7304 25.1323V26.1928V27.2534L80.6444 28.1471C80.5971 28.6387 80.4819 29.4596 80.3882 29.9712L80.218 30.9016L79.9101 31.8691L79.6022 32.8367L79.1309 33.7868L78.6596 34.737L78.2405 35.3412L77.8214 35.9453L77.0629 36.7506L76.3044 37.556L75.7116 38.01C75.3856 38.2598 74.7826 38.6702 74.3717 38.9221L73.6245 39.3802L72.6652 39.796L71.706 40.2117L70.7314 40.5139L69.7569 40.8161L68.6828 41.0293C68.0921 41.1466 67.0961 41.3057 66.4696 41.3829L65.3304 41.5233L63.0942 41.5518C61.8644 41.5674 60.6872 41.5652 60.4784 41.5469V41.5469ZM64.6553 36.1189C65.4226 35.9692 66.1488 35.6889 66.7027 35.3287L67.1468 35.0399L67.5199 34.6416L67.8929 34.2434L68.1894 33.6664L68.4858 33.0895L68.6561 32.4461C68.7497 32.0922 68.8674 31.5502 68.9176 31.2417L69.009 30.6807L69.0808 28.5069L69.1527 26.3331L69.0805 23.8464L69.0083 21.3597L68.8396 20.5468L68.6709 19.7338L68.3437 19.0364L68.0165 18.3391L67.6017 17.8869L67.1868 17.4347L66.6805 17.1287L66.1742 16.8226L65.5414 16.6186L64.9085 16.4147L64.149 16.3199L63.3896 16.2251L62.6701 16.2248C61.8261 16.2246 60.7948 16.3461 60.0923 16.5287L59.5923 16.6587L58.9957 16.9565L58.3991 17.2543L58.0125 17.6024L57.6259 17.9504L57.3194 18.4226L57.013 18.8948L56.8013 19.47C56.6849 19.7864 56.5369 20.3022 56.4724 20.6162L56.3552 21.1871L56.2548 22.4617L56.1545 23.7364L56.2003 26.9928L56.2461 30.2492L56.3387 30.9396L56.4312 31.63L56.644 32.4013L56.8567 33.1725L57.1275 33.6959L57.3984 34.2192L57.9047 34.738L58.411 35.2569L59.0438 35.5712L59.6767 35.8856L60.2466 36.0275C60.5601 36.1055 61.1107 36.2034 61.4702 36.2452L62.1238 36.3211L63.0942 36.2776L64.0647 36.2342L64.6553 36.1189V36.1189ZM100.771 41.5036C100.4 41.4641 99.6787 41.3482 99.1681 41.2461L98.2399 41.0605L97.1097 40.6829L95.9795 40.3052L95.1267 39.887C94.0868 39.377 93.3069 38.892 92.4352 38.2134L91.7744 37.6989L91.0327 36.9315L90.2909 36.1642L89.7294 35.3643L89.168 34.5644L88.6244 33.4425L88.0808 32.3205L87.8291 31.5257C87.5353 30.5981 87.2654 29.2762 87.1454 28.1779L87.0605 27.4011L87.0597 26.211L87.0588 25.0209L87.1488 24.1828C87.3426 22.3792 87.7962 20.6951 88.4965 19.1797L88.9056 18.2943L89.3597 17.5831C91.5852 14.0973 95.2397 11.7923 99.8007 10.9978L100.602 10.8582L102.433 10.8116L104.263 10.765L105.893 10.867L107.522 10.9689L108.872 11.143C111.276 11.4531 113.465 11.9702 115.095 12.6132L115.749 12.8712V12.9584C115.749 13.0262 113.665 18.0886 113.594 18.1909C113.585 18.2043 113.013 18.023 112.322 17.7879L111.066 17.3606L110.011 17.1419C109.431 17.0216 108.615 16.874 108.197 16.8138L107.437 16.7045L106.045 16.7056L104.653 16.7067L103.893 16.9L103.134 17.0932L102.374 17.472L101.615 17.8507L101.174 18.2377C100.597 18.7449 100.144 19.286 99.7702 19.916L99.4665 20.4273L99.1743 21.2013L98.882 21.9753L98.7102 22.8374L98.5385 23.6996L98.4378 24.9664L98.3371 26.2332L98.4378 27.5084L98.5385 28.7837L98.7385 29.6891L98.9385 30.5944L99.2056 31.3028L99.4727 32.0113L99.8798 32.649L100.287 33.2868L100.801 33.798L101.315 34.3092L101.779 34.5969C102.686 35.1591 103.697 35.4918 104.99 35.6537L105.75 35.7489L106.636 35.6918C107.123 35.6605 108.046 35.5579 108.686 35.4639L109.85 35.2929L110.796 35.0424C111.316 34.9047 112.132 34.6522 112.61 34.4814L113.479 34.1708L113.543 34.2115C113.579 34.2339 114.096 35.4197 114.692 36.8466L115.777 39.4409L115.729 39.4903C115.702 39.5174 115.25 39.6951 114.723 39.8851C112.289 40.7636 109.435 41.283 105.792 41.5105L104.4 41.5975L102.923 41.5864L101.446 41.5753L100.771 41.5035L100.771 41.5036ZM135.959 41.5065C133.204 41.308 130.509 40.7922 128.319 40.0439L127.268 39.6847L126.308 39.2186L125.349 38.7524L124.621 38.2581L123.892 37.7638L123.164 37.0271L122.436 36.2905L122.095 35.7485L121.754 35.2066L121.501 34.5834L121.249 33.9603L121.115 33.2951L120.981 32.6298L120.982 31.6553L120.983 30.6807L121.141 29.904L121.298 29.1272L121.551 28.4629L121.804 27.7987L122.275 27.0747L122.746 26.3507L123.336 25.7809L123.927 25.2111L124.577 24.7624L125.227 24.3137L126.079 23.901C128.697 22.6321 132.089 21.9298 136.887 21.6632L138.406 21.5788L140.289 21.5772L142.173 21.5755L142.336 21.4862L142.499 21.3968V20.848C142.499 20.5462 142.459 19.897 142.41 19.4054L142.322 18.5117L142.192 17.9938L142.063 17.476L141.842 17.0583L141.62 16.6407L141.173 16.223L140.726 15.8052L140.241 15.6174L139.757 15.4296L139.039 15.2999L138.322 15.1701L135.833 15.2154L133.343 15.2608L132.39 15.3992C130.619 15.6563 129.264 16.0561 127.497 16.8432L126.53 17.2737L126.467 17.2022C126.433 17.1629 126.072 16.1905 125.666 15.0414L124.927 12.952L124.972 12.83L125.018 12.7081L126.059 12.3607C128.308 11.6097 131.06 11.1279 134.552 10.874L135.846 10.78L138.307 10.779L140.769 10.7781L141.782 10.874C143.917 11.0764 145.511 11.3891 147.069 11.9109L148.052 12.2404L148.841 12.6443C149.274 12.8664 149.889 13.2247 150.207 13.4404L150.785 13.8326L151.439 14.4892L152.092 15.1458L152.454 15.6965C152.652 15.9994 152.965 16.574 153.148 16.9733L153.48 17.6994L153.685 18.5228L153.889 19.3463L153.978 20.3099L154.067 21.2734L154.042 30.1166L154.017 38.9597L153.005 39.2866C149.514 40.4136 145.311 41.24 141.697 41.5095L140.516 41.5976L138.702 41.5855C137.704 41.5788 136.47 41.5432 135.959 41.5065L135.959 41.5065ZM141.603 36.0668C142.016 36.0213 142.386 35.9634 142.426 35.938L142.499 35.892V30.987V26.0821L142.306 26.0326L142.113 25.9831L140.091 26.0646L138.069 26.1461L137.225 26.2778C136.761 26.3503 136.077 26.4883 135.706 26.5844L135.031 26.7592L134.245 27.1442L133.458 27.5291L132.973 28.0261L132.488 28.5231L132.262 29.0126L132.037 29.5022L131.954 30.0991L131.871 30.6959L131.953 31.4314L132.035 32.1668L132.153 32.5087C132.217 32.6968 132.373 33.0569 132.498 33.309L132.725 33.7675L133.118 34.2012L133.512 34.635L134.006 34.9637L134.5 35.2925L135.147 35.5475L135.793 35.8024L136.493 35.9475C136.878 36.0273 137.542 36.1239 137.969 36.1622L138.744 36.2319L139.799 36.1907C140.379 36.168 141.191 36.1123 141.603 36.0668ZM26.6611 40.8863C26.6146 40.827 25.6814 38.953 24.5874 36.7221C22.6566 32.785 21.0004 29.5559 19.3637 26.5381L18.568 25.0709L15.8098 25.0481L13.0516 25.0254L12.9689 25.2479L12.8861 25.4705V33.1892V40.9079H6.76834H0.650542V20.7125V0.517046L9.27874 0.49547C14.0243 0.483603 19.9385 0.476256 22.4215 0.479144L26.936 0.48439L28.0329 0.633142C28.6363 0.714956 29.5622 0.880762 30.0905 1.0016L31.051 1.2213L31.9047 1.52324L32.7584 1.82518L33.4982 2.20457C33.9051 2.41324 34.4733 2.74736 34.7608 2.94707L35.2836 3.31018L35.9755 3.98953L36.6674 4.66888L37.1031 5.31352L37.5388 5.95816L37.8644 6.66871L38.1899 7.37925L38.4023 8.12868L38.6146 8.87812L38.7454 9.77909L38.8762 10.6801V11.6936V12.7071L38.7435 13.6215L38.6107 14.5359L38.3536 15.3586L38.0964 16.1814L37.8005 16.7856C37.6378 17.1178 37.3166 17.6687 37.0868 18.0097L36.6689 18.6297L35.9348 19.3535L35.2006 20.0773L34.5702 20.5101C33.6396 21.149 32.9228 21.538 31.8114 22.0074L30.8176 22.4272L30.7386 22.5543L30.6597 22.6813L34.1521 29.0975C36.0729 32.6265 38.2986 36.7163 39.0981 38.186L40.5517 40.8583L40.5106 40.9262L40.4695 40.9942H33.6076H26.7457L26.6611 40.8863ZM14.9799 19.1563C15.6616 19.1073 16.7837 18.989 17.4735 18.8933L18.7277 18.7194L19.67 18.4709C21.9305 17.8748 23.4313 17.0367 24.6764 15.6754L25.1955 15.1079L25.5429 14.5099L25.8902 13.9118L26.1971 13.0616L26.5039 12.2114L26.5019 11.3915L26.4998 10.5716L26.3127 10.0106L26.1256 9.44963L25.7456 8.8736L25.3656 8.29757L25.0056 7.99579C24.8075 7.82981 24.4014 7.55732 24.1031 7.39027L23.5606 7.08653L22.9166 6.87254L22.2726 6.65855L21.3555 6.50602L20.4384 6.35348L16.7541 6.34806L13.0697 6.34264L12.999 6.41453L12.9283 6.48643L12.9056 12.6401L12.8829 18.7937L12.9668 19.0195L13.0507 19.2453H13.3956C13.5853 19.2453 14.2983 19.2052 14.9799 19.1563V19.1563Z" fill="#1366AA"/>
<path d="M85.3291 66.8292C78.1572 66.3937 74.0656 65.8326 58.0733 63.0912C45.6757 60.966 41.6271 60.3796 37.1462 60.0599L35.7117 59.9576L32.3785 60.0091L29.0454 60.0607L27.1468 60.1927C19.7208 60.709 12.3467 61.8124 3.43734 63.7403C2.02307 64.0464 0.817444 64.2967 0.758167 64.2967H0.650391V58.2122V52.1277H0.695951C0.721009 52.1277 1.77475 51.859 3.03759 51.5306C10.1949 49.6693 15.9758 48.6757 22.3791 48.2064L24.1512 48.0766L27.189 47.9774L30.2268 47.8782L35.3741 47.9244L40.5215 47.9706L41.8295 48.0667C48.332 48.5447 52.1985 49.1246 65.4568 51.6101C74.1098 53.2322 78.7228 53.9134 83.8946 54.3325L85.6666 54.4761L87.9352 54.5317L90.2037 54.5874L92.9982 54.5303L95.7926 54.4732L97.9444 54.334C100.278 54.1831 103.046 53.9499 106.065 53.6499L107.984 53.4593L107.922 53.5228C107.887 53.5577 103.323 56.5787 97.7789 60.2361L87.6984 66.8859L86.7247 66.8703C86.1892 66.8618 85.5612 66.8433 85.3291 66.8292ZM112.143 61.3811C112.618 60.5845 114.45 57.5166 116.213 54.5637L119.42 49.1947L136.697 49.194L153.975 49.1933V56.0114V62.8296H132.627H111.28L112.143 61.3811V61.3811ZM59.9719 41.455C56.4038 41.0973 54.2533 40.5494 51.9556 39.4127L51.0697 38.9745L50.2023 38.3812L49.3348 37.788L48.5636 37.0393L47.7924 36.2907L47.2983 35.6569L46.8043 35.0231L46.3422 34.22L45.88 33.4168L45.5137 32.4804C45.116 31.4639 44.8663 30.5734 44.659 29.4319L44.5262 28.7007L44.4392 27.4343L44.3522 26.1679L44.4404 24.9693C44.4889 24.3101 44.5898 23.403 44.6647 22.9537L44.8009 22.1367L45.092 21.1442L45.3831 20.1517L45.8446 19.1656L46.3061 18.1795L46.7891 17.4422L47.2722 16.705L48.0738 15.8487L48.8755 14.9923L49.5101 14.4978C50.3639 13.8324 51.1529 13.344 52.1703 12.8509L53.0179 12.4401L54.0267 12.0965L55.0355 11.7529L56.0059 11.5337C57.2953 11.2425 58.4872 11.0713 59.9719 10.964L61.1955 10.8756H62.5878H63.9801L65.2037 10.9637C65.8766 11.0123 66.9492 11.1292 67.5873 11.2237L68.7473 11.3955L69.8786 11.687C71.3366 12.0626 72.2611 12.4067 73.5154 13.0409L74.528 13.5528L75.3116 14.126L76.0951 14.6992L76.7918 15.3973C77.593 16.2001 78.0759 16.828 78.6894 17.8646L79.1236 18.5982L79.4572 19.4188C79.8889 20.4803 80.1897 21.5475 80.4059 22.784L80.5794 23.7765L80.6233 25.6378L80.6672 27.4992L80.5671 28.3996C80.5121 28.8948 80.3912 29.6884 80.2985 30.1631L80.13 31.0261L79.8409 31.9135L79.5517 32.8009L79.1629 33.5964C78.9491 34.034 78.5616 34.7221 78.3019 35.1256L77.8296 35.8592L76.8539 36.8576L75.8782 37.856L75.0333 38.4279L74.1885 38.9998L73.2191 39.4739L72.2497 39.948L71.2371 40.2906L70.2245 40.6332L69.2541 40.8523C68.0856 41.1162 66.8621 41.3017 65.499 41.4214L64.4864 41.5104L62.3768 41.4975C61.2166 41.4904 60.1343 41.4712 59.9719 41.455ZM65.0695 36.085C65.4367 35.9846 65.9478 35.8036 66.2054 35.683L66.6739 35.4637L67.1217 35.1103L67.5695 34.7569L67.9724 34.1409L68.3753 33.5248L68.6067 32.8087L68.8381 32.0926L68.973 31.2573L69.108 30.422L69.1473 26.8074L69.1867 23.1929L69.0905 22.0798L68.9942 20.9667L68.7914 20.1489L68.5886 19.3311L68.3114 18.792L68.0343 18.2529L67.5261 17.7343L67.0179 17.2157L66.5941 16.9845L66.1704 16.7533L65.4231 16.5318L64.6759 16.3103L63.669 16.2163L62.6622 16.1224L61.6571 16.2215L60.6519 16.3207L60.0377 16.4943L59.4234 16.6679L58.8756 16.9426L58.3279 17.2173L57.8134 17.7351L57.2989 18.2529L56.9899 18.9002L56.6808 19.5475L56.5197 20.1998C56.4311 20.5585 56.3092 21.2382 56.2489 21.7101L56.1392 22.5682L56.1429 26.193L56.1467 29.8178L56.2903 30.8966L56.4338 31.9755L56.7076 32.7954L56.9814 33.6153L57.3036 34.1116L57.6257 34.608L58.0175 34.9607L58.4092 35.3134L59.0851 35.6438L59.7609 35.9743L60.3938 36.1083C60.7419 36.1821 61.1216 36.26 61.2376 36.2815C61.3537 36.303 62.1131 36.3087 62.9253 36.2942L64.402 36.2678L65.0695 36.085H65.0695ZM100.265 41.384C99.0802 41.2127 97.9775 40.9421 96.8474 40.5454L95.877 40.2047L94.9506 39.7322L94.0241 39.2597L93.2207 38.7099L92.4173 38.1601L91.7511 37.5483C90.8686 36.7377 90.1142 35.8577 89.4939 34.9154L88.9862 34.1441L88.5789 33.2756C87.8971 31.8214 87.4445 30.2109 87.2313 28.4801L87.1409 27.7465L87.14 26.1878L87.1391 24.6291L87.2654 23.709C87.424 22.553 87.5834 21.8388 87.9146 20.7989L88.1758 19.979L88.5806 19.116L88.9854 18.2529L89.4953 17.4762C90.1198 16.5248 90.8711 15.646 91.7511 14.8378L92.4173 14.2259L93.2189 13.6798C94.2956 12.9464 94.9406 12.5955 96.0458 12.1421C97.5117 11.5408 98.8574 11.1868 100.56 10.9545L101.278 10.8567L103.33 10.8639L105.382 10.8712L106.536 10.9622C110.142 11.2465 113.423 11.919 115.373 12.7739L115.737 12.9339L114.679 15.464C114.097 16.8555 113.593 18.0256 113.558 18.0641L113.494 18.1342L112.624 17.8245C110.921 17.2182 109.071 16.8278 107.082 16.6552L105.978 16.5594L105.12 16.6559L104.262 16.7525L103.624 16.9194L102.986 17.0864L102.368 17.3903L101.75 17.6943L101.202 18.1462L100.653 18.5982L100.225 19.146L99.7966 19.6938L99.4159 20.4941L99.0353 21.2943L98.7922 22.279L98.549 23.2637L98.4467 24.1642L98.3443 25.0648L98.3926 26.794L98.4409 28.5233L98.613 29.3811C99.0113 31.3665 99.6651 32.7482 100.699 33.7885C101.539 34.6345 102.544 35.1884 103.809 35.503L104.4 35.6499L105.244 35.7222L106.087 35.7946L107.016 35.7201C108.202 35.6249 108.971 35.5095 110.178 35.2454L111.147 35.0336L112.314 34.6364L113.482 34.2391L113.547 34.3156C113.583 34.3576 114.081 35.5139 114.654 36.885L115.694 39.3781L115.541 39.4927C115.457 39.5558 114.928 39.7624 114.366 39.9519C112.351 40.6313 110.579 40.9954 107.775 41.3059L106.594 41.4368L103.851 41.4714L101.109 41.506L100.265 41.384H100.265ZM135.917 41.4577C133.593 41.2482 131.567 40.9094 129.783 40.432L128.67 40.1341L127.778 39.7917C127.288 39.6034 126.505 39.2535 126.037 39.0142L125.187 38.5791L124.542 38.1253L123.896 37.6716L123.278 37.0734L122.659 36.4751L122.208 35.7788L121.757 35.0824L121.548 34.5646C121.433 34.2798 121.271 33.7749 121.188 33.4426L121.038 32.8385L121.036 31.7597L121.035 30.6809L121.139 30.1199C121.369 28.8696 121.855 27.707 122.532 26.7858L122.921 26.2567L123.457 25.7443L123.992 25.2318L124.604 24.8158C124.941 24.587 125.583 24.2144 126.031 23.9878L126.846 23.5758L127.708 23.2702C129.514 22.6295 131.994 22.1332 134.651 21.8803L136.044 21.7478L138.448 21.6634C139.771 21.6169 141.203 21.5782 141.631 21.5773L142.409 21.5757L142.485 21.4247L142.562 21.2736L142.494 20.0179L142.426 18.7621L142.3 18.2055C142.23 17.8993 142.096 17.464 142.001 17.2381L141.829 16.8274L141.427 16.388L141.025 15.9486L140.615 15.7358C140.389 15.6188 139.914 15.4398 139.558 15.3381L138.913 15.1533L136.381 15.154L133.85 15.1548L132.668 15.3085L131.487 15.4622L130.39 15.7496L129.293 16.037L128.027 16.5689C127.331 16.8614 126.702 17.12 126.629 17.1436L126.496 17.1863L126.006 15.821C125.736 15.07 125.388 14.0949 125.232 13.654L124.948 12.8525L125.348 12.6759C126.742 12.0614 129.742 11.4139 132.71 11.0871L133.85 10.9617L136.191 10.8573L138.532 10.753L140.41 10.856L142.288 10.959L143.258 11.0923C145.247 11.3653 147.209 11.9155 148.641 12.602L149.357 12.9453L150.084 13.4383L150.811 13.9313L151.446 14.5818L152.081 15.2323L152.486 15.8579L152.891 16.4834L153.174 17.1524L153.457 17.8215L153.629 18.5119C153.724 18.8917 153.84 19.5315 153.888 19.9337L153.975 20.665V29.7911V38.9172L153.026 39.2186C149.908 40.2085 146.817 40.8797 143.427 41.3031L142.288 41.4454L139.292 41.4687C137.645 41.4816 136.126 41.4766 135.917 41.4578V41.4577ZM141.397 36.1516L142.372 36.0556L142.478 35.9678L142.585 35.8801L142.563 30.9502L142.541 26.0204L141.233 25.9934L139.925 25.9664L138.719 26.0629C137.369 26.1709 136.455 26.319 135.504 26.5839L134.862 26.7629L134.175 27.1018L133.488 27.4406L133.015 27.882L132.543 28.3234L132.233 28.965L131.923 29.6067L131.884 30.5007L131.845 31.3946L131.987 32.0482L132.13 32.7018L132.392 33.2449L132.654 33.7879L133.252 34.3928L133.85 34.9978L134.482 35.3121C135.278 35.7072 136.084 35.9572 137.056 36.1109L137.816 36.2309L139.119 36.2392L140.423 36.2476L141.397 36.1516V36.1516ZM3.37175 40.8434L0.650391 40.8194V20.722V0.624676L11.0506 0.560385L21.4509 0.496094L24.4465 0.540484L27.4421 0.584875L28.5539 0.761895C31.2177 1.18604 33.093 1.87353 34.7543 3.0349L35.4845 3.54542L36.1492 4.25368C36.9771 5.13588 37.2644 5.56093 37.7832 6.67195L38.1938 7.5511L38.4032 8.371C38.5183 8.82195 38.6576 9.5016 38.7127 9.88134L38.8129 10.5718L38.8113 11.7369L38.8097 12.902L38.6706 13.7649L38.5315 14.6277L38.2354 15.5341L37.9392 16.4405L37.6393 17.0015C37.4743 17.3101 37.1517 17.8221 36.9224 18.1395L36.5054 18.7165L35.7923 19.4069L35.0792 20.0973L34.3828 20.5682C33.5427 21.1363 32.718 21.5684 31.5347 22.0603L30.6487 22.4286L30.654 22.6279L30.6594 22.8271L35.5694 31.837C38.2699 36.7924 40.4793 40.8606 40.4793 40.8775C40.4793 40.8943 37.3751 40.905 33.581 40.9014L26.6827 40.8947L24.8912 37.2118C23.0328 33.3913 21.0768 29.567 19.4982 26.6677L18.5819 24.9847H15.8816H13.1813L13.0337 25.0468L12.886 25.1088V33.0084V40.908L9.48955 40.8877C7.62151 40.8765 4.8685 40.8566 3.37175 40.8434ZM15.0799 19.2005C16.2094 19.1306 17.796 18.9287 18.847 18.7213L19.7427 18.5445L20.5968 18.2583C21.7018 17.8881 22.4307 17.5468 23.1915 17.0435L23.8053 16.6374L24.3465 16.1074L24.8877 15.5775L25.2478 15.0597C25.7222 14.3776 26.0621 13.6706 26.3474 12.7726L26.5805 12.039L26.5777 11.4315L26.575 10.824L26.4407 10.2881C26.2769 9.63384 26.0502 9.16051 25.6161 8.56579L25.2858 8.1133L24.6874 7.6835L24.089 7.25371L23.4385 6.99712L22.788 6.74054L21.9085 6.54433L21.029 6.34812L16.9786 6.34547L12.9282 6.34283L12.9065 12.7199L12.8849 19.097L12.9849 19.2203L13.085 19.3436L13.6817 19.2969C14.0098 19.2712 14.639 19.2278 15.08 19.2005L15.0799 19.2005Z" fill="#075FA7"/>
</svg>
