<svg width="16" height="16" viewBox="0 0 16 16" fill="none" xmlns="http://www.w3.org/2000/svg">
<g clip-path="url(#clip0_211_24)">
<path d="M15.2369 9.37168H14.9975V7.21496C14.9975 6.87352 14.8276 6.57121 14.568 6.38752V6.09387C14.568 5.6679 14.2215 5.32137 13.7955 5.32137H13.6167L14.3008 4.31762C14.5301 3.98118 14.4429 3.5209 14.1064 3.29159L9.46484 0.128461C9.30188 0.017367 9.10544 -0.023633 8.91156 0.0131483C8.71778 0.049867 8.54987 0.159836 8.43881 0.322836L4.43253 6.20168H3.31769L3.58666 3.47887C3.58969 3.44818 3.60962 3.42159 3.63744 3.41112C3.98397 3.28046 4.28428 3.03646 4.48303 2.72409C4.49869 2.69949 4.52822 2.68543 4.55878 2.68852L6.30737 2.86127C6.43275 2.87343 6.54428 2.78212 6.55666 2.6568C6.56903 2.53149 6.4775 2.4199 6.35219 2.40752L4.60359 2.23477C4.40063 2.2149 4.20706 2.30843 4.09831 2.4793C3.95219 2.70899 3.73137 2.88837 3.47659 2.98443C3.28481 3.05674 3.15313 3.22899 3.13287 3.43402L2.8595 6.20165H2.56878L2.99416 1.89527C3.00947 1.74027 3.14781 1.6264 3.303 1.64193L6.83656 1.99099C6.96187 2.00309 7.07347 1.91184 7.08584 1.78652C7.09822 1.66121 7.00669 1.54962 6.88138 1.53724L3.34781 1.18818C2.94269 1.14821 2.58041 1.44524 2.54037 1.85043L2.1975 5.32137H1.61359C1.18766 5.32137 0.841094 5.6679 0.841094 6.09387V6.29418C0.492625 6.45462 0.25 6.80687 0.25 7.21496V14.9867C0.25 15.5454 0.704563 16 1.26334 16H13.9842C14.5429 16 14.9975 15.5454 14.9975 14.9867V12.83H15.2369C15.5196 12.83 15.7495 12.6001 15.7495 12.3175V9.88421C15.7495 9.60159 15.5196 9.37168 15.2369 9.37168ZM13.7955 5.77737C13.9701 5.77734 14.1121 5.91934 14.1121 6.0939V6.21005C14.0701 6.20474 14.0275 6.20171 13.9842 6.20171H13.0168L13.306 5.77737H13.7955ZM8.81559 0.579586C8.85809 0.517242 8.92231 0.47518 8.99644 0.461117C9.01416 0.457773 9.03194 0.456086 9.04959 0.456086C9.10575 0.456086 9.16062 0.472898 9.20806 0.505211L13.8497 3.66834C13.9783 3.75605 14.0117 3.93212 13.924 4.0608L12.4651 6.20162H12.115L12.8302 5.15202C12.9462 4.9818 12.9558 4.76518 12.8551 4.58665C12.7213 4.34946 12.6671 4.07018 12.7024 3.80021C12.7286 3.59937 12.6403 3.4033 12.4718 3.28849L10.0656 1.64874C9.89703 1.5339 9.68222 1.52337 9.50491 1.62127C9.26663 1.75284 8.98684 1.80449 8.71716 1.76674C8.51716 1.73868 8.31431 1.82899 8.20003 1.99665L5.33444 6.20165H4.98431L8.81559 0.579586ZM8.916 4.45118C7.92316 4.45118 7.10816 5.22534 7.04175 6.20165H5.88616L8.57675 2.25343C8.57678 2.25343 8.57678 2.25343 8.57678 2.25343C8.59206 2.23096 8.61741 2.21759 8.64344 2.21759C8.64691 2.21759 8.65038 2.21784 8.65384 2.2183C9.02066 2.26962 9.40112 2.19943 9.72525 2.02046C9.75075 2.00634 9.7835 2.00837 9.80875 2.02555L12.215 3.66534C12.2402 3.68252 12.254 3.71227 12.2502 3.74115C12.2022 4.1083 12.276 4.48812 12.458 4.81068C12.4726 4.83659 12.4708 4.86977 12.4535 4.89524L11.5633 6.20162H10.7903C10.7239 5.22534 9.90891 4.45118 8.916 4.45118ZM10.3331 6.20168H7.49891C7.56422 5.47702 8.17466 4.90718 8.916 4.90718C9.65738 4.90715 10.2678 5.47702 10.3331 6.20168ZM1.29706 6.09387C1.29706 5.9193 1.43903 5.7773 1.61359 5.7773H2.15247L2.11056 6.20165H1.29706V6.09387ZM0.705969 7.21496C0.705969 6.90765 0.956 6.65762 1.26334 6.65762H13.9842C14.2915 6.65762 14.5415 6.90765 14.5415 7.21496V7.84759H0.705969V7.21496ZM14.5415 14.9867C14.5415 15.294 14.2915 15.544 13.9842 15.544H1.26334C0.956 15.544 0.705969 15.294 0.705969 14.9867V14.3541H1.93541C2.06134 14.3541 2.16338 14.252 2.16338 14.1261C2.16338 14.0002 2.06131 13.8981 1.93541 13.8981H0.705969V8.30355H14.5415V9.37168H12.3738H12.3738C11.6908 9.37168 11.0992 9.7698 10.8184 10.3461C10.8175 10.348 10.8164 10.3499 10.8154 10.3518C10.8131 10.3567 10.811 10.3618 10.8087 10.3668C10.7752 10.4378 10.7462 10.5113 10.7225 10.5872C10.7225 10.5874 10.7224 10.5876 10.7223 10.5878C10.6719 10.75 10.6447 10.9223 10.6447 11.1008C10.6447 12.0543 11.4203 12.83 12.3738 12.83H12.3738H14.5415V13.8981H3.39522C3.26928 13.8981 3.16725 14.0002 3.16725 14.1261C3.16725 14.252 3.26931 14.3541 3.39522 14.3541H14.5415V14.9867ZM15.2935 12.3175C15.2935 12.3486 15.2682 12.374 15.2369 12.374H12.3739C11.8912 12.374 11.4704 12.1041 11.2546 11.7072C11.2448 11.6892 11.2354 11.6709 11.2264 11.6523C11.2085 11.6152 11.1923 11.5771 11.1781 11.5381C11.128 11.4017 11.1007 11.2544 11.1007 11.1008C11.1007 10.9473 11.128 10.8 11.1781 10.6635C11.1924 10.6246 11.2085 10.5865 11.2264 10.5493C11.2354 10.5308 11.2448 10.5125 11.2546 10.4945C11.4704 10.0976 11.8912 9.82765 12.3739 9.82765H15.2369C15.2681 9.82765 15.2935 9.85302 15.2935 9.88421V12.3175Z" fill="white"/>
<path d="M12.427 10.1758C11.9169 10.1758 11.502 10.5907 11.502 11.1008C11.502 11.6108 11.9169 12.0257 12.427 12.0257C12.937 12.0257 13.352 11.6108 13.352 11.1008C13.352 10.5907 12.937 10.1758 12.427 10.1758ZM12.427 11.5698C12.1683 11.5698 11.9579 11.3594 11.9579 11.1008C11.9579 10.8422 12.1683 10.6317 12.427 10.6317C12.6856 10.6317 12.896 10.8422 12.896 11.1008C12.896 11.3594 12.6856 11.5698 12.427 11.5698Z" fill="white"/>
</g>
<defs>
<clipPath id="clip0_211_24">
<rect width="16" height="16" fill="white"/>
</clipPath>
</defs>
</svg>
